<svg xmlns="http://www.w3.org/2000/svg" xmlns:xlink="http://www.w3.org/1999/xlink" version="1.1" class="marks" width="3303" height="1900" viewBox="0 0 3303 1900"><rect width="3303" height="1900" fill="white"/><g fill="none" stroke-miterlimit="10" transform="translate(98,44)"><g class="mark-group role-frame root" role="graphics-object" aria-roledescription="group mark container"><g transform="translate(0,0)"><path class="background" aria-hidden="true" d="M0.5,0.5h3200v1800h-3200Z" stroke="#ddd"/><g><g class="mark-group role-axis" aria-hidden="true"><g transform="translate(0.5,0.5)"><path class="background" aria-hidden="true" d="M0,0h0v0h0Z" pointer-events="none"/><g><g class="mark-rule role-axis-grid" pointer-events="none"><line transform="translate(0,1800)" x2="3200" y2="0" stroke="#ddd" stroke-width="1" opacity="1"/><line transform="translate(0,1772)" x2="3200" y2="0" stroke="#ddd" stroke-width="1" opacity="1"/><line transform="translate(0,1745)" x2="3200" y2="0" stroke="#ddd" stroke-width="1" opacity="1"/><line transform="translate(0,1717)" x2="3200" y2="0" stroke="#ddd" stroke-width="1" opacity="1"/><line transform="translate(0,1689)" x2="3200" y2="0" stroke="#ddd" stroke-width="1" opacity="1"/><line transform="translate(0,1662)" x2="3200" y2="0" stroke="#ddd" stroke-width="1" opacity="1"/><line transform="translate(0,1634)" x2="3200" y2="0" stroke="#ddd" stroke-width="1" opacity="1"/><line transform="translate(0,1606)" x2="3200" y2="0" stroke="#ddd" stroke-width="1" opacity="1"/><line transform="translate(0,1578)" x2="3200" y2="0" stroke="#ddd" stroke-width="1" opacity="1"/><line transform="translate(0,1551)" x2="3200" y2="0" stroke="#ddd" stroke-width="1" opacity="1"/><line transform="translate(0,1523)" x2="3200" y2="0" stroke="#ddd" stroke-width="1" opacity="1"/><line transform="translate(0,1495)" x2="3200" y2="0" stroke="#ddd" stroke-width="1" opacity="1"/><line transform="translate(0,1468)" x2="3200" y2="0" stroke="#ddd" stroke-width="1" opacity="1"/><line transform="translate(0,1440)" x2="3200" y2="0" stroke="#ddd" stroke-width="1" opacity="1"/><line transform="translate(0,1412)" x2="3200" y2="0" stroke="#ddd" stroke-width="1" opacity="1"/><line transform="translate(0,1385)" x2="3200" y2="0" stroke="#ddd" stroke-width="1" opacity="1"/><line transform="translate(0,1357)" x2="3200" y2="0" stroke="#ddd" stroke-width="1" opacity="1"/><line transform="translate(0,1329)" x2="3200" y2="0" stroke="#ddd" stroke-width="1" opacity="1"/><line transform="translate(0,1302)" x2="3200" y2="0" stroke="#ddd" stroke-width="1" opacity="1"/><line transform="translate(0,1274)" x2="3200" y2="0" stroke="#ddd" stroke-width="1" opacity="1"/><line transform="translate(0,1246)" x2="3200" y2="0" stroke="#ddd" stroke-width="1" opacity="1"/><line transform="translate(0,1218)" x2="3200" y2="0" stroke="#ddd" stroke-width="1" opacity="1"/><line transform="translate(0,1191)" x2="3200" y2="0" stroke="#ddd" stroke-width="1" opacity="1"/><line transform="translate(0,1163)" x2="3200" y2="0" stroke="#ddd" stroke-width="1" opacity="1"/><line transform="translate(0,1135)" x2="3200" y2="0" stroke="#ddd" stroke-width="1" opacity="1"/><line transform="translate(0,1108)" x2="3200" y2="0" stroke="#ddd" stroke-width="1" opacity="1"/><line transform="translate(0,1080)" x2="3200" y2="0" stroke="#ddd" stroke-width="1" opacity="1"/><line transform="translate(0,1052)" x2="3200" y2="0" stroke="#ddd" stroke-width="1" opacity="1"/><line transform="translate(0,1025)" x2="3200" y2="0" stroke="#ddd" stroke-width="1" opacity="1"/><line transform="translate(0,997)" x2="3200" y2="0" stroke="#ddd" stroke-width="1" opacity="1"/><line transform="translate(0,969)" x2="3200" y2="0" stroke="#ddd" stroke-width="1" opacity="1"/><line transform="translate(0,942)" x2="3200" y2="0" stroke="#ddd" stroke-width="1" opacity="1"/><line transform="translate(0,914)" x2="3200" y2="0" stroke="#ddd" stroke-width="1" opacity="1"/><line transform="translate(0,886)" x2="3200" y2="0" stroke="#ddd" stroke-width="1" opacity="1"/><line transform="translate(0,858)" x2="3200" y2="0" stroke="#ddd" stroke-width="1" opacity="1"/><line transform="translate(0,831)" x2="3200" y2="0" stroke="#ddd" stroke-width="1" opacity="1"/><line transform="translate(0,803)" x2="3200" y2="0" stroke="#ddd" stroke-width="1" opacity="1"/><line transform="translate(0,775)" x2="3200" y2="0" stroke="#ddd" stroke-width="1" opacity="1"/><line transform="translate(0,748)" x2="3200" y2="0" stroke="#ddd" stroke-width="1" opacity="1"/><line transform="translate(0,720)" x2="3200" y2="0" stroke="#ddd" stroke-width="1" opacity="1"/><line transform="translate(0,692)" x2="3200" y2="0" stroke="#ddd" stroke-width="1" opacity="1"/><line transform="translate(0,665)" x2="3200" y2="0" stroke="#ddd" stroke-width="1" opacity="1"/><line transform="translate(0,637)" x2="3200" y2="0" stroke="#ddd" stroke-width="1" opacity="1"/><line transform="translate(0,609)" x2="3200" y2="0" stroke="#ddd" stroke-width="1" opacity="1"/><line transform="translate(0,582)" x2="3200" y2="0" stroke="#ddd" stroke-width="1" opacity="1"/><line transform="translate(0,554)" x2="3200" y2="0" stroke="#ddd" stroke-width="1" opacity="1"/><line transform="translate(0,526)" x2="3200" y2="0" stroke="#ddd" stroke-width="1" opacity="1"/><line transform="translate(0,498)" x2="3200" y2="0" stroke="#ddd" stroke-width="1" opacity="1"/><line transform="translate(0,471)" x2="3200" y2="0" stroke="#ddd" stroke-width="1" opacity="1"/><line transform="translate(0,443)" x2="3200" y2="0" stroke="#ddd" stroke-width="1" opacity="1"/><line transform="translate(0,415)" x2="3200" y2="0" stroke="#ddd" stroke-width="1" opacity="1"/><line transform="translate(0,388)" x2="3200" y2="0" stroke="#ddd" stroke-width="1" opacity="1"/><line transform="translate(0,360)" x2="3200" y2="0" stroke="#ddd" stroke-width="1" opacity="1"/><line transform="translate(0,332)" x2="3200" y2="0" stroke="#ddd" stroke-width="1" opacity="1"/><line transform="translate(0,305)" x2="3200" y2="0" stroke="#ddd" stroke-width="1" opacity="1"/><line transform="translate(0,277)" x2="3200" y2="0" stroke="#ddd" stroke-width="1" opacity="1"/><line transform="translate(0,249)" x2="3200" y2="0" stroke="#ddd" stroke-width="1" opacity="1"/><line transform="translate(0,222)" x2="3200" y2="0" stroke="#ddd" stroke-width="1" opacity="1"/><line transform="translate(0,194)" x2="3200" y2="0" stroke="#ddd" stroke-width="1" opacity="1"/><line transform="translate(0,166)" x2="3200" y2="0" stroke="#ddd" stroke-width="1" opacity="1"/><line transform="translate(0,138)" x2="3200" y2="0" stroke="#ddd" stroke-width="1" opacity="1"/><line transform="translate(0,111)" x2="3200" y2="0" stroke="#ddd" stroke-width="1" opacity="1"/><line transform="translate(0,83)" x2="3200" y2="0" stroke="#ddd" stroke-width="1" opacity="1"/><line transform="translate(0,55)" x2="3200" y2="0" stroke="#ddd" stroke-width="1" opacity="1"/><line transform="translate(0,28)" x2="3200" y2="0" stroke="#ddd" stroke-width="1" opacity="1"/><line transform="translate(0,0)" x2="3200" y2="0" stroke="#ddd" stroke-width="1" opacity="1"/></g></g><path class="foreground" aria-hidden="true" d="" pointer-events="none" display="none"/></g></g><g class="mark-group role-axis" role="graphics-symbol" aria-roledescription="axis" aria-label="X-axis titled 'Stress Pattern' for a discrete scale with 5 values: 01, 10, 11, 12, 21"><g transform="translate(0.5,1800.5)"><path class="background" aria-hidden="true" d="M0,0h0v0h0Z" pointer-events="none"/><g><g class="mark-rule role-axis-tick" pointer-events="none"><line transform="translate(320,0)" x2="0" y2="5" stroke="#888" stroke-width="1" opacity="1"/><line transform="translate(960,0)" x2="0" y2="5" stroke="#888" stroke-width="1" opacity="1"/><line transform="translate(1600,0)" x2="0" y2="5" stroke="#888" stroke-width="1" opacity="1"/><line transform="translate(2240,0)" x2="0" y2="5" stroke="#888" stroke-width="1" opacity="1"/><line transform="translate(2880,0)" x2="0" y2="5" stroke="#888" stroke-width="1" opacity="1"/></g><g class="mark-text role-axis-label" pointer-events="none"><text text-anchor="middle" transform="translate(319.5,23)" font-family="sans-serif" font-size="20px" fill="#000" opacity="1">01</text><text text-anchor="middle" transform="translate(959.5,23)" font-family="sans-serif" font-size="20px" fill="#000" opacity="1">10</text><text text-anchor="middle" transform="translate(1599.5,23)" font-family="sans-serif" font-size="20px" fill="#000" opacity="1">11</text><text text-anchor="middle" transform="translate(2239.5,23)" font-family="sans-serif" font-size="20px" fill="#000" opacity="1">12</text><text text-anchor="middle" transform="translate(2879.5,23)" font-family="sans-serif" font-size="20px" fill="#000" opacity="1">21</text></g><g class="mark-rule role-axis-domain" pointer-events="none"><line transform="translate(0,0)" x2="3200" y2="0" stroke="#888" stroke-width="1" opacity="1"/></g><g class="mark-text role-axis-title" pointer-events="none"><text text-anchor="middle" transform="translate(1600,47)" font-family="sans-serif" font-size="20px" font-weight="bold" fill="#000" opacity="1">Stress Pattern</text></g></g><path class="foreground" aria-hidden="true" d="" pointer-events="none" display="none"/></g></g><g class="mark-group role-axis" role="graphics-symbol" aria-roledescription="axis" aria-label="Y-axis titled 'Count' for a linear scale with values from 0 to 13,000"><g transform="translate(0.5,0.5)"><path class="background" aria-hidden="true" d="M0,0h0v0h0Z" pointer-events="none"/><g><g class="mark-rule role-axis-tick" pointer-events="none"><line transform="translate(0,1800)" x2="-5" y2="0" stroke="#888" stroke-width="1" opacity="1"/><line transform="translate(0,1772)" x2="-5" y2="0" stroke="#888" stroke-width="1" opacity="1"/><line transform="translate(0,1745)" x2="-5" y2="0" stroke="#888" stroke-width="1" opacity="1"/><line transform="translate(0,1717)" x2="-5" y2="0" stroke="#888" stroke-width="1" opacity="1"/><line transform="translate(0,1689)" x2="-5" y2="0" stroke="#888" stroke-width="1" opacity="1"/><line transform="translate(0,1662)" x2="-5" y2="0" stroke="#888" stroke-width="1" opacity="1"/><line transform="translate(0,1634)" x2="-5" y2="0" stroke="#888" stroke-width="1" opacity="1"/><line transform="translate(0,1606)" x2="-5" y2="0" stroke="#888" stroke-width="1" opacity="1"/><line transform="translate(0,1578)" x2="-5" y2="0" stroke="#888" stroke-width="1" opacity="1"/><line transform="translate(0,1551)" x2="-5" y2="0" stroke="#888" stroke-width="1" opacity="1"/><line transform="translate(0,1523)" x2="-5" y2="0" stroke="#888" stroke-width="1" opacity="1"/><line transform="translate(0,1495)" x2="-5" y2="0" stroke="#888" stroke-width="1" opacity="1"/><line transform="translate(0,1468)" x2="-5" y2="0" stroke="#888" stroke-width="1" opacity="1"/><line transform="translate(0,1440)" x2="-5" y2="0" stroke="#888" stroke-width="1" opacity="1"/><line transform="translate(0,1412)" x2="-5" y2="0" stroke="#888" stroke-width="1" opacity="1"/><line transform="translate(0,1385)" x2="-5" y2="0" stroke="#888" stroke-width="1" opacity="1"/><line transform="translate(0,1357)" x2="-5" y2="0" stroke="#888" stroke-width="1" opacity="1"/><line transform="translate(0,1329)" x2="-5" y2="0" stroke="#888" stroke-width="1" opacity="1"/><line transform="translate(0,1302)" x2="-5" y2="0" stroke="#888" stroke-width="1" opacity="1"/><line transform="translate(0,1274)" x2="-5" y2="0" stroke="#888" stroke-width="1" opacity="1"/><line transform="translate(0,1246)" x2="-5" y2="0" stroke="#888" stroke-width="1" opacity="1"/><line transform="translate(0,1218)" x2="-5" y2="0" stroke="#888" stroke-width="1" opacity="1"/><line transform="translate(0,1191)" x2="-5" y2="0" stroke="#888" stroke-width="1" opacity="1"/><line transform="translate(0,1163)" x2="-5" y2="0" stroke="#888" stroke-width="1" opacity="1"/><line transform="translate(0,1135)" x2="-5" y2="0" stroke="#888" stroke-width="1" opacity="1"/><line transform="translate(0,1108)" x2="-5" y2="0" stroke="#888" stroke-width="1" opacity="1"/><line transform="translate(0,1080)" x2="-5" y2="0" stroke="#888" stroke-width="1" opacity="1"/><line transform="translate(0,1052)" x2="-5" y2="0" stroke="#888" stroke-width="1" opacity="1"/><line transform="translate(0,1025)" x2="-5" y2="0" stroke="#888" stroke-width="1" opacity="1"/><line transform="translate(0,997)" x2="-5" y2="0" stroke="#888" stroke-width="1" opacity="1"/><line transform="translate(0,969)" x2="-5" y2="0" stroke="#888" stroke-width="1" opacity="1"/><line transform="translate(0,942)" x2="-5" y2="0" stroke="#888" stroke-width="1" opacity="1"/><line transform="translate(0,914)" x2="-5" y2="0" stroke="#888" stroke-width="1" opacity="1"/><line transform="translate(0,886)" x2="-5" y2="0" stroke="#888" stroke-width="1" opacity="1"/><line transform="translate(0,858)" x2="-5" y2="0" stroke="#888" stroke-width="1" opacity="1"/><line transform="translate(0,831)" x2="-5" y2="0" stroke="#888" stroke-width="1" opacity="1"/><line transform="translate(0,803)" x2="-5" y2="0" stroke="#888" stroke-width="1" opacity="1"/><line transform="translate(0,775)" x2="-5" y2="0" stroke="#888" stroke-width="1" opacity="1"/><line transform="translate(0,748)" x2="-5" y2="0" stroke="#888" stroke-width="1" opacity="1"/><line transform="translate(0,720)" x2="-5" y2="0" stroke="#888" stroke-width="1" opacity="1"/><line transform="translate(0,692)" x2="-5" y2="0" stroke="#888" stroke-width="1" opacity="1"/><line transform="translate(0,665)" x2="-5" y2="0" stroke="#888" stroke-width="1" opacity="1"/><line transform="translate(0,637)" x2="-5" y2="0" stroke="#888" stroke-width="1" opacity="1"/><line transform="translate(0,609)" x2="-5" y2="0" stroke="#888" stroke-width="1" opacity="1"/><line transform="translate(0,582)" x2="-5" y2="0" stroke="#888" stroke-width="1" opacity="1"/><line transform="translate(0,554)" x2="-5" y2="0" stroke="#888" stroke-width="1" opacity="1"/><line transform="translate(0,526)" x2="-5" y2="0" stroke="#888" stroke-width="1" opacity="1"/><line transform="translate(0,498)" x2="-5" y2="0" stroke="#888" stroke-width="1" opacity="1"/><line transform="translate(0,471)" x2="-5" y2="0" stroke="#888" stroke-width="1" opacity="1"/><line transform="translate(0,443)" x2="-5" y2="0" stroke="#888" stroke-width="1" opacity="1"/><line transform="translate(0,415)" x2="-5" y2="0" stroke="#888" stroke-width="1" opacity="1"/><line transform="translate(0,388)" x2="-5" y2="0" stroke="#888" stroke-width="1" opacity="1"/><line transform="translate(0,360)" x2="-5" y2="0" stroke="#888" stroke-width="1" opacity="1"/><line transform="translate(0,332)" x2="-5" y2="0" stroke="#888" stroke-width="1" opacity="1"/><line transform="translate(0,305)" x2="-5" y2="0" stroke="#888" stroke-width="1" opacity="1"/><line transform="translate(0,277)" x2="-5" y2="0" stroke="#888" stroke-width="1" opacity="1"/><line transform="translate(0,249)" x2="-5" y2="0" stroke="#888" stroke-width="1" opacity="1"/><line transform="translate(0,222)" x2="-5" y2="0" stroke="#888" stroke-width="1" opacity="1"/><line transform="translate(0,194)" x2="-5" y2="0" stroke="#888" stroke-width="1" opacity="1"/><line transform="translate(0,166)" x2="-5" y2="0" stroke="#888" stroke-width="1" opacity="1"/><line transform="translate(0,138)" x2="-5" y2="0" stroke="#888" stroke-width="1" opacity="1"/><line transform="translate(0,111)" x2="-5" y2="0" stroke="#888" stroke-width="1" opacity="1"/><line transform="translate(0,83)" x2="-5" y2="0" stroke="#888" stroke-width="1" opacity="1"/><line transform="translate(0,55)" x2="-5" y2="0" stroke="#888" stroke-width="1" opacity="1"/><line transform="translate(0,28)" x2="-5" y2="0" stroke="#888" stroke-width="1" opacity="1"/><line transform="translate(0,0)" x2="-5" y2="0" stroke="#888" stroke-width="1" opacity="1"/></g><g class="mark-text role-axis-label" pointer-events="none"><text text-anchor="end" transform="translate(-7,1806)" font-family="sans-serif" font-size="20px" fill="#000" opacity="1">0</text><text text-anchor="end" transform="translate(-7,1778.3076923076924)" font-family="sans-serif" font-size="20px" fill="#000" opacity="1">200</text><text text-anchor="end" transform="translate(-7,1750.6153846153845)" font-family="sans-serif" font-size="20px" fill="#000" opacity="1">400</text><text text-anchor="end" transform="translate(-7,1722.923076923077)" font-family="sans-serif" font-size="20px" fill="#000" opacity="1">600</text><text text-anchor="end" transform="translate(-7,1695.2307692307693)" font-family="sans-serif" font-size="20px" fill="#000" opacity="1">800</text><text text-anchor="end" transform="translate(-7,1667.5384615384617)" font-family="sans-serif" font-size="20px" fill="#000" opacity="1">1,000</text><text text-anchor="end" transform="translate(-7,1639.8461538461538)" font-family="sans-serif" font-size="20px" fill="#000" opacity="1">1,200</text><text text-anchor="end" transform="translate(-7,1612.153846153846)" font-family="sans-serif" font-size="20px" fill="#000" opacity="1">1,400</text><text text-anchor="end" transform="translate(-7,1584.4615384615383)" font-family="sans-serif" font-size="20px" fill="#000" opacity="1">1,600</text><text text-anchor="end" transform="translate(-7,1556.769230769231)" font-family="sans-serif" font-size="20px" fill="#000" opacity="1">1,800</text><text text-anchor="end" transform="translate(-7,1529.076923076923)" font-family="sans-serif" font-size="20px" fill="#000" opacity="1">2,000</text><text text-anchor="end" transform="translate(-7,1501.3846153846152)" font-family="sans-serif" font-size="20px" fill="#000" opacity="1">2,200</text><text text-anchor="end" transform="translate(-7,1473.6923076923076)" font-family="sans-serif" font-size="20px" fill="#000" opacity="1">2,400</text><text text-anchor="end" transform="translate(-7,1446)" font-family="sans-serif" font-size="20px" fill="#000" opacity="1">2,600</text><text text-anchor="end" transform="translate(-7,1418.3076923076924)" font-family="sans-serif" font-size="20px" fill="#000" opacity="1">2,800</text><text text-anchor="end" transform="translate(-7,1390.6153846153845)" font-family="sans-serif" font-size="20px" fill="#000" opacity="1">3,000</text><text text-anchor="end" transform="translate(-7,1362.923076923077)" font-family="sans-serif" font-size="20px" fill="#000" opacity="1">3,200</text><text text-anchor="end" transform="translate(-7,1335.2307692307693)" font-family="sans-serif" font-size="20px" fill="#000" opacity="1">3,400</text><text text-anchor="end" transform="translate(-7,1307.5384615384614)" font-family="sans-serif" font-size="20px" fill="#000" opacity="1">3,600</text><text text-anchor="end" transform="translate(-7,1279.8461538461538)" font-family="sans-serif" font-size="20px" fill="#000" opacity="1">3,800</text><text text-anchor="end" transform="translate(-7,1252.1538461538462)" font-family="sans-serif" font-size="20px" fill="#000" opacity="1">4,000</text><text text-anchor="end" transform="translate(-7,1224.4615384615386)" font-family="sans-serif" font-size="20px" fill="#000" opacity="1">4,200</text><text text-anchor="end" transform="translate(-7,1196.7692307692307)" font-family="sans-serif" font-size="20px" fill="#000" opacity="1">4,400</text><text text-anchor="end" transform="translate(-7,1169.0769230769229)" font-family="sans-serif" font-size="20px" fill="#000" opacity="1">4,600</text><text text-anchor="end" transform="translate(-7,1141.3846153846152)" font-family="sans-serif" font-size="20px" fill="#000" opacity="1">4,800</text><text text-anchor="end" transform="translate(-7,1113.6923076923078)" font-family="sans-serif" font-size="20px" fill="#000" opacity="1">5,000</text><text text-anchor="end" transform="translate(-7,1086)" font-family="sans-serif" font-size="20px" fill="#000" opacity="1">5,200</text><text text-anchor="end" transform="translate(-7,1058.3076923076922)" font-family="sans-serif" font-size="20px" fill="#000" opacity="1">5,400</text><text text-anchor="end" transform="translate(-7,1030.6153846153845)" font-family="sans-serif" font-size="20px" fill="#000" opacity="1">5,600</text><text text-anchor="end" transform="translate(-7,1002.923076923077)" font-family="sans-serif" font-size="20px" fill="#000" opacity="1">5,800</text><text text-anchor="end" transform="translate(-7,975.2307692307692)" font-family="sans-serif" font-size="20px" fill="#000" opacity="1">6,000</text><text text-anchor="end" transform="translate(-7,947.5384615384614)" font-family="sans-serif" font-size="20px" fill="#000" opacity="1">6,200</text><text text-anchor="end" transform="translate(-7,919.8461538461538)" font-family="sans-serif" font-size="20px" fill="#000" opacity="1">6,400</text><text text-anchor="end" transform="translate(-7,892.1538461538462)" font-family="sans-serif" font-size="20px" fill="#000" opacity="1">6,600</text><text text-anchor="end" transform="translate(-7,864.4615384615385)" font-family="sans-serif" font-size="20px" fill="#000" opacity="1">6,800</text><text text-anchor="end" transform="translate(-7,836.7692307692308)" font-family="sans-serif" font-size="20px" fill="#000" opacity="1">7,000</text><text text-anchor="end" transform="translate(-7,809.076923076923)" font-family="sans-serif" font-size="20px" fill="#000" opacity="1">7,200</text><text text-anchor="end" transform="translate(-7,781.3846153846155)" font-family="sans-serif" font-size="20px" fill="#000" opacity="1">7,400</text><text text-anchor="end" transform="translate(-7,753.6923076923076)" font-family="sans-serif" font-size="20px" fill="#000" opacity="1">7,600</text><text text-anchor="end" transform="translate(-7,726)" font-family="sans-serif" font-size="20px" fill="#000" opacity="1">7,800</text><text text-anchor="end" transform="translate(-7,698.3076923076923)" font-family="sans-serif" font-size="20px" fill="#000" opacity="1">8,000</text><text text-anchor="end" transform="translate(-7,670.6153846153846)" font-family="sans-serif" font-size="20px" fill="#000" opacity="1">8,200</text><text text-anchor="end" transform="translate(-7,642.9230769230769)" font-family="sans-serif" font-size="20px" fill="#000" opacity="1">8,400</text><text text-anchor="end" transform="translate(-7,615.2307692307693)" font-family="sans-serif" font-size="20px" fill="#000" opacity="1">8,600</text><text text-anchor="end" transform="translate(-7,587.5384615384614)" font-family="sans-serif" font-size="20px" fill="#000" opacity="1">8,800</text><text text-anchor="end" transform="translate(-7,559.8461538461539)" font-family="sans-serif" font-size="20px" fill="#000" opacity="1">9,000</text><text text-anchor="end" transform="translate(-7,532.1538461538461)" font-family="sans-serif" font-size="20px" fill="#000" opacity="1">9,200</text><text text-anchor="end" transform="translate(-7,504.4615384615385)" font-family="sans-serif" font-size="20px" fill="#000" opacity="1">9,400</text><text text-anchor="end" transform="translate(-7,476.7692307692307)" font-family="sans-serif" font-size="20px" fill="#000" opacity="1">9,600</text><text text-anchor="end" transform="translate(-7,449.0769230769231)" font-family="sans-serif" font-size="20px" fill="#000" opacity="1">9,800</text><text text-anchor="end" transform="translate(-7,421.3846153846153)" font-family="sans-serif" font-size="20px" fill="#000" opacity="1">10,000</text><text text-anchor="end" transform="translate(-7,393.69230769230774)" font-family="sans-serif" font-size="20px" fill="#000" opacity="1">10,200</text><text text-anchor="end" transform="translate(-7,365.99999999999994)" font-family="sans-serif" font-size="20px" fill="#000" opacity="1">10,400</text><text text-anchor="end" transform="translate(-7,338.3076923076923)" font-family="sans-serif" font-size="20px" fill="#000" opacity="1">10,600</text><text text-anchor="end" transform="translate(-7,310.6153846153845)" font-family="sans-serif" font-size="20px" fill="#000" opacity="1">10,800</text><text text-anchor="end" transform="translate(-7,282.92307692307696)" font-family="sans-serif" font-size="20px" fill="#000" opacity="1">11,000</text><text text-anchor="end" transform="translate(-7,255.23076923076914)" font-family="sans-serif" font-size="20px" fill="#000" opacity="1">11,200</text><text text-anchor="end" transform="translate(-7,227.53846153846155)" font-family="sans-serif" font-size="20px" fill="#000" opacity="1">11,400</text><text text-anchor="end" transform="translate(-7,199.84615384615375)" font-family="sans-serif" font-size="20px" fill="#000" opacity="1">11,600</text><text text-anchor="end" transform="translate(-7,172.15384615384616)" font-family="sans-serif" font-size="20px" fill="#000" opacity="1">11,800</text><text text-anchor="end" transform="translate(-7,144.46153846153837)" font-family="sans-serif" font-size="20px" fill="#000" opacity="1">12,000</text><text text-anchor="end" transform="translate(-7,116.76923076923077)" font-family="sans-serif" font-size="20px" fill="#000" opacity="1">12,200</text><text text-anchor="end" transform="translate(-7,89.07692307692298)" font-family="sans-serif" font-size="20px" fill="#000" opacity="1">12,400</text><text text-anchor="end" transform="translate(-7,61.38461538461539)" font-family="sans-serif" font-size="20px" fill="#000" opacity="1">12,600</text><text text-anchor="end" transform="translate(-7,33.692307692307594)" font-family="sans-serif" font-size="20px" fill="#000" opacity="1">12,800</text><text text-anchor="end" transform="translate(-7,6)" font-family="sans-serif" font-size="20px" fill="#000" opacity="1">13,000</text></g><g class="mark-rule role-axis-domain" pointer-events="none"><line transform="translate(0,1800)" x2="0" y2="-1800" stroke="#888" stroke-width="1" opacity="1"/></g><g class="mark-text role-axis-title" pointer-events="none"><text text-anchor="middle" transform="translate(-72.171875,900) rotate(-90) translate(0,-4)" font-family="sans-serif" font-size="20px" font-weight="bold" fill="#000" opacity="1">Count</text></g></g><path class="foreground" aria-hidden="true" d="" pointer-events="none" display="none"/></g></g><g class="mark-rect role-mark layer_0_marks" role="graphics-object" aria-roledescription="rect mark container"><path aria-label="Stress Pattern: 10; Count: 12877" role="graphics-symbol" aria-roledescription="bar" d="M935,17.03076923076914h50v1782.9692307692308h-50Z" fill="#4c78a8"/><path aria-label="Stress Pattern: 12; Count: 2953" role="graphics-symbol" aria-roledescription="bar" d="M2215,1391.123076923077h50v408.87692307692305h-50Z" fill="#4c78a8"/><path aria-label="Stress Pattern: 01; Count: 2842" role="graphics-symbol" aria-roledescription="bar" d="M295,1406.4923076923076h50v393.5076923076924h-50Z" fill="#4c78a8"/><path aria-label="Stress Pattern: 11; Count: 171" role="graphics-symbol" aria-roledescription="bar" d="M1575,1776.3230769230768h50v23.67692307692323h-50Z" fill="#4c78a8"/><path aria-label="Stress Pattern: 21; Count: 133" role="graphics-symbol" aria-roledescription="bar" d="M2855,1781.5846153846153h50v18.41538461538471h-50Z" fill="#4c78a8"/></g><g class="mark-text role-mark layer_1_marks" role="graphics-object" aria-roledescription="text mark container"><text aria-label="Stress Pattern: 10; Count: 12877; count: 12877" role="graphics-symbol" aria-roledescription="text mark" text-anchor="middle" transform="translate(960,11.030769230769138)" font-family="sans-serif" font-size="20px" fill="black">12877</text><text aria-label="Stress Pattern: 12; Count: 2953; count: 2953" role="graphics-symbol" aria-roledescription="text mark" text-anchor="middle" transform="translate(2240,1385.123076923077)" font-family="sans-serif" font-size="20px" fill="black">2953</text><text aria-label="Stress Pattern: 01; Count: 2842; count: 2842" role="graphics-symbol" aria-roledescription="text mark" text-anchor="middle" transform="translate(320,1400.4923076923076)" font-family="sans-serif" font-size="20px" fill="black">2842</text><text aria-label="Stress Pattern: 11; Count: 171; count: 171" role="graphics-symbol" aria-roledescription="text mark" text-anchor="middle" transform="translate(1600,1770.3230769230768)" font-family="sans-serif" font-size="20px" fill="black">171</text><text aria-label="Stress Pattern: 21; Count: 133; count: 133" role="graphics-symbol" aria-roledescription="text mark" text-anchor="middle" transform="translate(2880,1775.5846153846153)" font-family="sans-serif" font-size="20px" fill="black">133</text></g><g class="mark-group role-title"><g transform="translate(1600,-39)"><path class="background" aria-hidden="true" d="M0,0h0v0h0Z" pointer-events="none"/><g><g class="mark-text role-title-text" role="graphics-symbol" aria-roledescription="title" aria-label="Title text 'Stress Pattern in 2-Syllable English Words'" pointer-events="none"><text text-anchor="middle" transform="translate(0,20)" font-family="sans-serif" font-size="25px" font-weight="bold" fill="#000" opacity="1">Stress Pattern in 2-Syllable English Words</text></g></g><path class="foreground" aria-hidden="true" d="" pointer-events="none" display="none"/></g></g></g><path class="foreground" aria-hidden="true" d="" display="none"/></g></g></g></svg>