<svg xmlns="http://www.w3.org/2000/svg" xmlns:xlink="http://www.w3.org/1999/xlink" version="1.1" class="marks" width="3292" height="1900" viewBox="0 0 3292 1900"><rect width="3292" height="1900" fill="white"/><g fill="none" stroke-miterlimit="10" transform="translate(87,44)"><g class="mark-group role-frame root" role="graphics-object" aria-roledescription="group mark container"><g transform="translate(0,0)"><path class="background" aria-hidden="true" d="M0.5,0.5h3200v1800h-3200Z" stroke="#ddd"/><g><g class="mark-group role-axis" aria-hidden="true"><g transform="translate(0.5,0.5)"><path class="background" aria-hidden="true" d="M0,0h0v0h0Z" pointer-events="none"/><g><g class="mark-rule role-axis-grid" pointer-events="none"><line transform="translate(0,1800)" x2="3200" y2="0" stroke="#ddd" stroke-width="1" opacity="1"/><line transform="translate(0,1764)" x2="3200" y2="0" stroke="#ddd" stroke-width="1" opacity="1"/><line transform="translate(0,1728)" x2="3200" y2="0" stroke="#ddd" stroke-width="1" opacity="1"/><line transform="translate(0,1692)" x2="3200" y2="0" stroke="#ddd" stroke-width="1" opacity="1"/><line transform="translate(0,1656)" x2="3200" y2="0" stroke="#ddd" stroke-width="1" opacity="1"/><line transform="translate(0,1620)" x2="3200" y2="0" stroke="#ddd" stroke-width="1" opacity="1"/><line transform="translate(0,1584)" x2="3200" y2="0" stroke="#ddd" stroke-width="1" opacity="1"/><line transform="translate(0,1548)" x2="3200" y2="0" stroke="#ddd" stroke-width="1" opacity="1"/><line transform="translate(0,1512)" x2="3200" y2="0" stroke="#ddd" stroke-width="1" opacity="1"/><line transform="translate(0,1476)" x2="3200" y2="0" stroke="#ddd" stroke-width="1" opacity="1"/><line transform="translate(0,1440)" x2="3200" y2="0" stroke="#ddd" stroke-width="1" opacity="1"/><line transform="translate(0,1404)" x2="3200" y2="0" stroke="#ddd" stroke-width="1" opacity="1"/><line transform="translate(0,1368)" x2="3200" y2="0" stroke="#ddd" stroke-width="1" opacity="1"/><line transform="translate(0,1332)" x2="3200" y2="0" stroke="#ddd" stroke-width="1" opacity="1"/><line transform="translate(0,1296)" x2="3200" y2="0" stroke="#ddd" stroke-width="1" opacity="1"/><line transform="translate(0,1260)" x2="3200" y2="0" stroke="#ddd" stroke-width="1" opacity="1"/><line transform="translate(0,1224)" x2="3200" y2="0" stroke="#ddd" stroke-width="1" opacity="1"/><line transform="translate(0,1188)" x2="3200" y2="0" stroke="#ddd" stroke-width="1" opacity="1"/><line transform="translate(0,1152)" x2="3200" y2="0" stroke="#ddd" stroke-width="1" opacity="1"/><line transform="translate(0,1116)" x2="3200" y2="0" stroke="#ddd" stroke-width="1" opacity="1"/><line transform="translate(0,1080)" x2="3200" y2="0" stroke="#ddd" stroke-width="1" opacity="1"/><line transform="translate(0,1044)" x2="3200" y2="0" stroke="#ddd" stroke-width="1" opacity="1"/><line transform="translate(0,1008)" x2="3200" y2="0" stroke="#ddd" stroke-width="1" opacity="1"/><line transform="translate(0,972)" x2="3200" y2="0" stroke="#ddd" stroke-width="1" opacity="1"/><line transform="translate(0,936)" x2="3200" y2="0" stroke="#ddd" stroke-width="1" opacity="1"/><line transform="translate(0,900)" x2="3200" y2="0" stroke="#ddd" stroke-width="1" opacity="1"/><line transform="translate(0,864)" x2="3200" y2="0" stroke="#ddd" stroke-width="1" opacity="1"/><line transform="translate(0,828)" x2="3200" y2="0" stroke="#ddd" stroke-width="1" opacity="1"/><line transform="translate(0,792)" x2="3200" y2="0" stroke="#ddd" stroke-width="1" opacity="1"/><line transform="translate(0,756)" x2="3200" y2="0" stroke="#ddd" stroke-width="1" opacity="1"/><line transform="translate(0,720)" x2="3200" y2="0" stroke="#ddd" stroke-width="1" opacity="1"/><line transform="translate(0,684)" x2="3200" y2="0" stroke="#ddd" stroke-width="1" opacity="1"/><line transform="translate(0,648)" x2="3200" y2="0" stroke="#ddd" stroke-width="1" opacity="1"/><line transform="translate(0,612)" x2="3200" y2="0" stroke="#ddd" stroke-width="1" opacity="1"/><line transform="translate(0,576)" x2="3200" y2="0" stroke="#ddd" stroke-width="1" opacity="1"/><line transform="translate(0,540)" x2="3200" y2="0" stroke="#ddd" stroke-width="1" opacity="1"/><line transform="translate(0,504)" x2="3200" y2="0" stroke="#ddd" stroke-width="1" opacity="1"/><line transform="translate(0,468)" x2="3200" y2="0" stroke="#ddd" stroke-width="1" opacity="1"/><line transform="translate(0,432)" x2="3200" y2="0" stroke="#ddd" stroke-width="1" opacity="1"/><line transform="translate(0,396)" x2="3200" y2="0" stroke="#ddd" stroke-width="1" opacity="1"/><line transform="translate(0,360)" x2="3200" y2="0" stroke="#ddd" stroke-width="1" opacity="1"/><line transform="translate(0,324)" x2="3200" y2="0" stroke="#ddd" stroke-width="1" opacity="1"/><line transform="translate(0,288)" x2="3200" y2="0" stroke="#ddd" stroke-width="1" opacity="1"/><line transform="translate(0,252)" x2="3200" y2="0" stroke="#ddd" stroke-width="1" opacity="1"/><line transform="translate(0,216)" x2="3200" y2="0" stroke="#ddd" stroke-width="1" opacity="1"/><line transform="translate(0,180)" x2="3200" y2="0" stroke="#ddd" stroke-width="1" opacity="1"/><line transform="translate(0,144)" x2="3200" y2="0" stroke="#ddd" stroke-width="1" opacity="1"/><line transform="translate(0,108)" x2="3200" y2="0" stroke="#ddd" stroke-width="1" opacity="1"/><line transform="translate(0,72)" x2="3200" y2="0" stroke="#ddd" stroke-width="1" opacity="1"/><line transform="translate(0,36)" x2="3200" y2="0" stroke="#ddd" stroke-width="1" opacity="1"/><line transform="translate(0,0)" x2="3200" y2="0" stroke="#ddd" stroke-width="1" opacity="1"/></g></g><path class="foreground" aria-hidden="true" d="" pointer-events="none" display="none"/></g></g><g class="mark-group role-axis" role="graphics-symbol" aria-roledescription="axis" aria-label="X-axis titled 'Stress Pattern' for a discrete scale with 5 values: 010, 100, 102, 120, 201"><g transform="translate(0.5,1800.5)"><path class="background" aria-hidden="true" d="M0,0h0v0h0Z" pointer-events="none"/><g><g class="mark-rule role-axis-tick" pointer-events="none"><line transform="translate(320,0)" x2="0" y2="5" stroke="#888" stroke-width="1" opacity="1"/><line transform="translate(960,0)" x2="0" y2="5" stroke="#888" stroke-width="1" opacity="1"/><line transform="translate(1600,0)" x2="0" y2="5" stroke="#888" stroke-width="1" opacity="1"/><line transform="translate(2240,0)" x2="0" y2="5" stroke="#888" stroke-width="1" opacity="1"/><line transform="translate(2880,0)" x2="0" y2="5" stroke="#888" stroke-width="1" opacity="1"/></g><g class="mark-text role-axis-label" pointer-events="none"><text text-anchor="middle" transform="translate(319.5,23)" font-family="sans-serif" font-size="20px" fill="#000" opacity="1">010</text><text text-anchor="middle" transform="translate(959.5,23)" font-family="sans-serif" font-size="20px" fill="#000" opacity="1">100</text><text text-anchor="middle" transform="translate(1599.5,23)" font-family="sans-serif" font-size="20px" fill="#000" opacity="1">102</text><text text-anchor="middle" transform="translate(2239.5,23)" font-family="sans-serif" font-size="20px" fill="#000" opacity="1">120</text><text text-anchor="middle" transform="translate(2879.5,23)" font-family="sans-serif" font-size="20px" fill="#000" opacity="1">201</text></g><g class="mark-rule role-axis-domain" pointer-events="none"><line transform="translate(0,0)" x2="3200" y2="0" stroke="#888" stroke-width="1" opacity="1"/></g><g class="mark-text role-axis-title" pointer-events="none"><text text-anchor="middle" transform="translate(1600,47)" font-family="sans-serif" font-size="20px" font-weight="bold" fill="#000" opacity="1">Stress Pattern</text></g></g><path class="foreground" aria-hidden="true" d="" pointer-events="none" display="none"/></g></g><g class="mark-group role-axis" role="graphics-symbol" aria-roledescription="axis" aria-label="Y-axis titled 'Count' for a linear scale with values from 0 to 5,000"><g transform="translate(0.5,0.5)"><path class="background" aria-hidden="true" d="M0,0h0v0h0Z" pointer-events="none"/><g><g class="mark-rule role-axis-tick" pointer-events="none"><line transform="translate(0,1800)" x2="-5" y2="0" stroke="#888" stroke-width="1" opacity="1"/><line transform="translate(0,1764)" x2="-5" y2="0" stroke="#888" stroke-width="1" opacity="1"/><line transform="translate(0,1728)" x2="-5" y2="0" stroke="#888" stroke-width="1" opacity="1"/><line transform="translate(0,1692)" x2="-5" y2="0" stroke="#888" stroke-width="1" opacity="1"/><line transform="translate(0,1656)" x2="-5" y2="0" stroke="#888" stroke-width="1" opacity="1"/><line transform="translate(0,1620)" x2="-5" y2="0" stroke="#888" stroke-width="1" opacity="1"/><line transform="translate(0,1584)" x2="-5" y2="0" stroke="#888" stroke-width="1" opacity="1"/><line transform="translate(0,1548)" x2="-5" y2="0" stroke="#888" stroke-width="1" opacity="1"/><line transform="translate(0,1512)" x2="-5" y2="0" stroke="#888" stroke-width="1" opacity="1"/><line transform="translate(0,1476)" x2="-5" y2="0" stroke="#888" stroke-width="1" opacity="1"/><line transform="translate(0,1440)" x2="-5" y2="0" stroke="#888" stroke-width="1" opacity="1"/><line transform="translate(0,1404)" x2="-5" y2="0" stroke="#888" stroke-width="1" opacity="1"/><line transform="translate(0,1368)" x2="-5" y2="0" stroke="#888" stroke-width="1" opacity="1"/><line transform="translate(0,1332)" x2="-5" y2="0" stroke="#888" stroke-width="1" opacity="1"/><line transform="translate(0,1296)" x2="-5" y2="0" stroke="#888" stroke-width="1" opacity="1"/><line transform="translate(0,1260)" x2="-5" y2="0" stroke="#888" stroke-width="1" opacity="1"/><line transform="translate(0,1224)" x2="-5" y2="0" stroke="#888" stroke-width="1" opacity="1"/><line transform="translate(0,1188)" x2="-5" y2="0" stroke="#888" stroke-width="1" opacity="1"/><line transform="translate(0,1152)" x2="-5" y2="0" stroke="#888" stroke-width="1" opacity="1"/><line transform="translate(0,1116)" x2="-5" y2="0" stroke="#888" stroke-width="1" opacity="1"/><line transform="translate(0,1080)" x2="-5" y2="0" stroke="#888" stroke-width="1" opacity="1"/><line transform="translate(0,1044)" x2="-5" y2="0" stroke="#888" stroke-width="1" opacity="1"/><line transform="translate(0,1008)" x2="-5" y2="0" stroke="#888" stroke-width="1" opacity="1"/><line transform="translate(0,972)" x2="-5" y2="0" stroke="#888" stroke-width="1" opacity="1"/><line transform="translate(0,936)" x2="-5" y2="0" stroke="#888" stroke-width="1" opacity="1"/><line transform="translate(0,900)" x2="-5" y2="0" stroke="#888" stroke-width="1" opacity="1"/><line transform="translate(0,864)" x2="-5" y2="0" stroke="#888" stroke-width="1" opacity="1"/><line transform="translate(0,828)" x2="-5" y2="0" stroke="#888" stroke-width="1" opacity="1"/><line transform="translate(0,792)" x2="-5" y2="0" stroke="#888" stroke-width="1" opacity="1"/><line transform="translate(0,756)" x2="-5" y2="0" stroke="#888" stroke-width="1" opacity="1"/><line transform="translate(0,720)" x2="-5" y2="0" stroke="#888" stroke-width="1" opacity="1"/><line transform="translate(0,684)" x2="-5" y2="0" stroke="#888" stroke-width="1" opacity="1"/><line transform="translate(0,648)" x2="-5" y2="0" stroke="#888" stroke-width="1" opacity="1"/><line transform="translate(0,612)" x2="-5" y2="0" stroke="#888" stroke-width="1" opacity="1"/><line transform="translate(0,576)" x2="-5" y2="0" stroke="#888" stroke-width="1" opacity="1"/><line transform="translate(0,540)" x2="-5" y2="0" stroke="#888" stroke-width="1" opacity="1"/><line transform="translate(0,504)" x2="-5" y2="0" stroke="#888" stroke-width="1" opacity="1"/><line transform="translate(0,468)" x2="-5" y2="0" stroke="#888" stroke-width="1" opacity="1"/><line transform="translate(0,432)" x2="-5" y2="0" stroke="#888" stroke-width="1" opacity="1"/><line transform="translate(0,396)" x2="-5" y2="0" stroke="#888" stroke-width="1" opacity="1"/><line transform="translate(0,360)" x2="-5" y2="0" stroke="#888" stroke-width="1" opacity="1"/><line transform="translate(0,324)" x2="-5" y2="0" stroke="#888" stroke-width="1" opacity="1"/><line transform="translate(0,288)" x2="-5" y2="0" stroke="#888" stroke-width="1" opacity="1"/><line transform="translate(0,252)" x2="-5" y2="0" stroke="#888" stroke-width="1" opacity="1"/><line transform="translate(0,216)" x2="-5" y2="0" stroke="#888" stroke-width="1" opacity="1"/><line transform="translate(0,180)" x2="-5" y2="0" stroke="#888" stroke-width="1" opacity="1"/><line transform="translate(0,144)" x2="-5" y2="0" stroke="#888" stroke-width="1" opacity="1"/><line transform="translate(0,108)" x2="-5" y2="0" stroke="#888" stroke-width="1" opacity="1"/><line transform="translate(0,72)" x2="-5" y2="0" stroke="#888" stroke-width="1" opacity="1"/><line transform="translate(0,36)" x2="-5" y2="0" stroke="#888" stroke-width="1" opacity="1"/><line transform="translate(0,0)" x2="-5" y2="0" stroke="#888" stroke-width="1" opacity="1"/></g><g class="mark-text role-axis-label" pointer-events="none"><text text-anchor="end" transform="translate(-7,1806)" font-family="sans-serif" font-size="20px" fill="#000" opacity="1">0</text><text text-anchor="end" transform="translate(-7,1770)" font-family="sans-serif" font-size="20px" fill="#000" opacity="1">100</text><text text-anchor="end" transform="translate(-7,1734)" font-family="sans-serif" font-size="20px" fill="#000" opacity="1">200</text><text text-anchor="end" transform="translate(-7,1698)" font-family="sans-serif" font-size="20px" fill="#000" opacity="1">300</text><text text-anchor="end" transform="translate(-7,1662)" font-family="sans-serif" font-size="20px" fill="#000" opacity="1">400</text><text text-anchor="end" transform="translate(-7,1626)" font-family="sans-serif" font-size="20px" fill="#000" opacity="1">500</text><text text-anchor="end" transform="translate(-7,1590)" font-family="sans-serif" font-size="20px" fill="#000" opacity="1">600</text><text text-anchor="end" transform="translate(-7,1554)" font-family="sans-serif" font-size="20px" fill="#000" opacity="1">700</text><text text-anchor="end" transform="translate(-7,1518)" font-family="sans-serif" font-size="20px" fill="#000" opacity="1">800</text><text text-anchor="end" transform="translate(-7,1482)" font-family="sans-serif" font-size="20px" fill="#000" opacity="1">900</text><text text-anchor="end" transform="translate(-7,1446)" font-family="sans-serif" font-size="20px" fill="#000" opacity="1">1,000</text><text text-anchor="end" transform="translate(-7,1410)" font-family="sans-serif" font-size="20px" fill="#000" opacity="1">1,100</text><text text-anchor="end" transform="translate(-7,1374)" font-family="sans-serif" font-size="20px" fill="#000" opacity="1">1,200</text><text text-anchor="end" transform="translate(-7,1338)" font-family="sans-serif" font-size="20px" fill="#000" opacity="1">1,300</text><text text-anchor="end" transform="translate(-7,1302)" font-family="sans-serif" font-size="20px" fill="#000" opacity="1">1,400</text><text text-anchor="end" transform="translate(-7,1266)" font-family="sans-serif" font-size="20px" fill="#000" opacity="1">1,500</text><text text-anchor="end" transform="translate(-7,1230)" font-family="sans-serif" font-size="20px" fill="#000" opacity="1">1,600</text><text text-anchor="end" transform="translate(-7,1193.9999999999998)" font-family="sans-serif" font-size="20px" fill="#000" opacity="1">1,700</text><text text-anchor="end" transform="translate(-7,1158)" font-family="sans-serif" font-size="20px" fill="#000" opacity="1">1,800</text><text text-anchor="end" transform="translate(-7,1122)" font-family="sans-serif" font-size="20px" fill="#000" opacity="1">1,900</text><text text-anchor="end" transform="translate(-7,1086)" font-family="sans-serif" font-size="20px" fill="#000" opacity="1">2,000</text><text text-anchor="end" transform="translate(-7,1050.0000000000002)" font-family="sans-serif" font-size="20px" fill="#000" opacity="1">2,100</text><text text-anchor="end" transform="translate(-7,1014.0000000000001)" font-family="sans-serif" font-size="20px" fill="#000" opacity="1">2,200</text><text text-anchor="end" transform="translate(-7,978.0000000000001)" font-family="sans-serif" font-size="20px" fill="#000" opacity="1">2,300</text><text text-anchor="end" transform="translate(-7,942)" font-family="sans-serif" font-size="20px" fill="#000" opacity="1">2,400</text><text text-anchor="end" transform="translate(-7,906)" font-family="sans-serif" font-size="20px" fill="#000" opacity="1">2,500</text><text text-anchor="end" transform="translate(-7,870)" font-family="sans-serif" font-size="20px" fill="#000" opacity="1">2,600</text><text text-anchor="end" transform="translate(-7,833.9999999999999)" font-family="sans-serif" font-size="20px" fill="#000" opacity="1">2,700</text><text text-anchor="end" transform="translate(-7,797.9999999999999)" font-family="sans-serif" font-size="20px" fill="#000" opacity="1">2,800</text><text text-anchor="end" transform="translate(-7,762.0000000000001)" font-family="sans-serif" font-size="20px" fill="#000" opacity="1">2,900</text><text text-anchor="end" transform="translate(-7,726)" font-family="sans-serif" font-size="20px" fill="#000" opacity="1">3,000</text><text text-anchor="end" transform="translate(-7,690)" font-family="sans-serif" font-size="20px" fill="#000" opacity="1">3,100</text><text text-anchor="end" transform="translate(-7,654)" font-family="sans-serif" font-size="20px" fill="#000" opacity="1">3,200</text><text text-anchor="end" transform="translate(-7,618)" font-family="sans-serif" font-size="20px" fill="#000" opacity="1">3,300</text><text text-anchor="end" transform="translate(-7,581.9999999999999)" font-family="sans-serif" font-size="20px" fill="#000" opacity="1">3,400</text><text text-anchor="end" transform="translate(-7,546.0000000000001)" font-family="sans-serif" font-size="20px" fill="#000" opacity="1">3,500</text><text text-anchor="end" transform="translate(-7,510.00000000000006)" font-family="sans-serif" font-size="20px" fill="#000" opacity="1">3,600</text><text text-anchor="end" transform="translate(-7,474)" font-family="sans-serif" font-size="20px" fill="#000" opacity="1">3,700</text><text text-anchor="end" transform="translate(-7,438)" font-family="sans-serif" font-size="20px" fill="#000" opacity="1">3,800</text><text text-anchor="end" transform="translate(-7,401.99999999999994)" font-family="sans-serif" font-size="20px" fill="#000" opacity="1">3,900</text><text text-anchor="end" transform="translate(-7,365.99999999999994)" font-family="sans-serif" font-size="20px" fill="#000" opacity="1">4,000</text><text text-anchor="end" transform="translate(-7,330.0000000000001)" font-family="sans-serif" font-size="20px" fill="#000" opacity="1">4,100</text><text text-anchor="end" transform="translate(-7,294.00000000000006)" font-family="sans-serif" font-size="20px" fill="#000" opacity="1">4,200</text><text text-anchor="end" transform="translate(-7,258)" font-family="sans-serif" font-size="20px" fill="#000" opacity="1">4,300</text><text text-anchor="end" transform="translate(-7,222)" font-family="sans-serif" font-size="20px" fill="#000" opacity="1">4,400</text><text text-anchor="end" transform="translate(-7,185.99999999999997)" font-family="sans-serif" font-size="20px" fill="#000" opacity="1">4,500</text><text text-anchor="end" transform="translate(-7,149.99999999999991)" font-family="sans-serif" font-size="20px" fill="#000" opacity="1">4,600</text><text text-anchor="end" transform="translate(-7,114.0000000000001)" font-family="sans-serif" font-size="20px" fill="#000" opacity="1">4,700</text><text text-anchor="end" transform="translate(-7,78.00000000000006)" font-family="sans-serif" font-size="20px" fill="#000" opacity="1">4,800</text><text text-anchor="end" transform="translate(-7,42.00000000000003)" font-family="sans-serif" font-size="20px" fill="#000" opacity="1">4,900</text><text text-anchor="end" transform="translate(-7,6)" font-family="sans-serif" font-size="20px" fill="#000" opacity="1">5,000</text></g><g class="mark-rule role-axis-domain" pointer-events="none"><line transform="translate(0,1800)" x2="0" y2="-1800" stroke="#888" stroke-width="1" opacity="1"/></g><g class="mark-text role-axis-title" pointer-events="none"><text text-anchor="middle" transform="translate(-61.048828125,900) rotate(-90) translate(0,-4)" font-family="sans-serif" font-size="20px" font-weight="bold" fill="#000" opacity="1">Count</text></g></g><path class="foreground" aria-hidden="true" d="" pointer-events="none" display="none"/></g></g><g class="mark-rect role-mark layer_0_marks" role="graphics-object" aria-roledescription="rect mark container"><path aria-label="Stress Pattern: 010; Count: 4534" role="graphics-symbol" aria-roledescription="bar" d="M295,167.7599999999999h50v1632.24h-50Z" fill="#4c78a8"/><path aria-label="Stress Pattern: 100; Count: 4064" role="graphics-symbol" aria-roledescription="bar" d="M935,336.96000000000004h50v1463.04h-50Z" fill="#4c78a8"/><path aria-label="Stress Pattern: 102; Count: 2071" role="graphics-symbol" aria-roledescription="bar" d="M1575,1054.44h50v745.56h-50Z" fill="#4c78a8"/><path aria-label="Stress Pattern: 120; Count: 878" role="graphics-symbol" aria-roledescription="bar" d="M2215,1483.92h50v316.0799999999999h-50Z" fill="#4c78a8"/><path aria-label="Stress Pattern: 201; Count: 462" role="graphics-symbol" aria-roledescription="bar" d="M2855,1633.6799999999998h50v166.32000000000016h-50Z" fill="#4c78a8"/></g><g class="mark-text role-mark layer_1_marks" role="graphics-object" aria-roledescription="text mark container"><text aria-label="Stress Pattern: 010; Count: 4534; count: 4534" role="graphics-symbol" aria-roledescription="text mark" text-anchor="middle" transform="translate(320,161.7599999999999)" font-family="sans-serif" font-size="20px" fill="black">4534</text><text aria-label="Stress Pattern: 100; Count: 4064; count: 4064" role="graphics-symbol" aria-roledescription="text mark" text-anchor="middle" transform="translate(960,330.96000000000004)" font-family="sans-serif" font-size="20px" fill="black">4064</text><text aria-label="Stress Pattern: 102; Count: 2071; count: 2071" role="graphics-symbol" aria-roledescription="text mark" text-anchor="middle" transform="translate(1600,1048.44)" font-family="sans-serif" font-size="20px" fill="black">2071</text><text aria-label="Stress Pattern: 120; Count: 878; count: 878" role="graphics-symbol" aria-roledescription="text mark" text-anchor="middle" transform="translate(2240,1477.92)" font-family="sans-serif" font-size="20px" fill="black">878</text><text aria-label="Stress Pattern: 201; Count: 462; count: 462" role="graphics-symbol" aria-roledescription="text mark" text-anchor="middle" transform="translate(2880,1627.6799999999998)" font-family="sans-serif" font-size="20px" fill="black">462</text></g><g class="mark-group role-title"><g transform="translate(1600,-39)"><path class="background" aria-hidden="true" d="M0,0h0v0h0Z" pointer-events="none"/><g><g class="mark-text role-title-text" role="graphics-symbol" aria-roledescription="title" aria-label="Title text 'Stress Pattern in 3-Syllable English Words'" pointer-events="none"><text text-anchor="middle" transform="translate(0,20)" font-family="sans-serif" font-size="25px" font-weight="bold" fill="#000" opacity="1">Stress Pattern in 3-Syllable English Words</text></g></g><path class="foreground" aria-hidden="true" d="" pointer-events="none" display="none"/></g></g></g><path class="foreground" aria-hidden="true" d="" display="none"/></g></g></g></svg>