<svg xmlns="http://www.w3.org/2000/svg" xmlns:xlink="http://www.w3.org/1999/xlink" version="1.1" class="marks" width="3292" height="1900" viewBox="0 0 3292 1900"><rect width="3292" height="1900" fill="white"/><g fill="none" stroke-miterlimit="10" transform="translate(87,44)"><g class="mark-group role-frame root" role="graphics-object" aria-roledescription="group mark container"><g transform="translate(0,0)"><path class="background" aria-hidden="true" d="M0.5,0.5h3200v1800h-3200Z" stroke="#ddd"/><g><g class="mark-group role-axis" aria-hidden="true"><g transform="translate(0.5,0.5)"><path class="background" aria-hidden="true" d="M0,0h0v0h0Z" pointer-events="none"/><g><g class="mark-rule role-axis-grid" pointer-events="none"><line transform="translate(0,1800)" x2="3200" y2="0" stroke="#ddd" stroke-width="1" opacity="1"/><line transform="translate(0,1759)" x2="3200" y2="0" stroke="#ddd" stroke-width="1" opacity="1"/><line transform="translate(0,1718)" x2="3200" y2="0" stroke="#ddd" stroke-width="1" opacity="1"/><line transform="translate(0,1677)" x2="3200" y2="0" stroke="#ddd" stroke-width="1" opacity="1"/><line transform="translate(0,1636)" x2="3200" y2="0" stroke="#ddd" stroke-width="1" opacity="1"/><line transform="translate(0,1595)" x2="3200" y2="0" stroke="#ddd" stroke-width="1" opacity="1"/><line transform="translate(0,1555)" x2="3200" y2="0" stroke="#ddd" stroke-width="1" opacity="1"/><line transform="translate(0,1514)" x2="3200" y2="0" stroke="#ddd" stroke-width="1" opacity="1"/><line transform="translate(0,1473)" x2="3200" y2="0" stroke="#ddd" stroke-width="1" opacity="1"/><line transform="translate(0,1432)" x2="3200" y2="0" stroke="#ddd" stroke-width="1" opacity="1"/><line transform="translate(0,1391)" x2="3200" y2="0" stroke="#ddd" stroke-width="1" opacity="1"/><line transform="translate(0,1350)" x2="3200" y2="0" stroke="#ddd" stroke-width="1" opacity="1"/><line transform="translate(0,1309)" x2="3200" y2="0" stroke="#ddd" stroke-width="1" opacity="1"/><line transform="translate(0,1268)" x2="3200" y2="0" stroke="#ddd" stroke-width="1" opacity="1"/><line transform="translate(0,1227)" x2="3200" y2="0" stroke="#ddd" stroke-width="1" opacity="1"/><line transform="translate(0,1186)" x2="3200" y2="0" stroke="#ddd" stroke-width="1" opacity="1"/><line transform="translate(0,1145)" x2="3200" y2="0" stroke="#ddd" stroke-width="1" opacity="1"/><line transform="translate(0,1105)" x2="3200" y2="0" stroke="#ddd" stroke-width="1" opacity="1"/><line transform="translate(0,1064)" x2="3200" y2="0" stroke="#ddd" stroke-width="1" opacity="1"/><line transform="translate(0,1023)" x2="3200" y2="0" stroke="#ddd" stroke-width="1" opacity="1"/><line transform="translate(0,982)" x2="3200" y2="0" stroke="#ddd" stroke-width="1" opacity="1"/><line transform="translate(0,941)" x2="3200" y2="0" stroke="#ddd" stroke-width="1" opacity="1"/><line transform="translate(0,900)" x2="3200" y2="0" stroke="#ddd" stroke-width="1" opacity="1"/><line transform="translate(0,859)" x2="3200" y2="0" stroke="#ddd" stroke-width="1" opacity="1"/><line transform="translate(0,818)" x2="3200" y2="0" stroke="#ddd" stroke-width="1" opacity="1"/><line transform="translate(0,777)" x2="3200" y2="0" stroke="#ddd" stroke-width="1" opacity="1"/><line transform="translate(0,736)" x2="3200" y2="0" stroke="#ddd" stroke-width="1" opacity="1"/><line transform="translate(0,695)" x2="3200" y2="0" stroke="#ddd" stroke-width="1" opacity="1"/><line transform="translate(0,655)" x2="3200" y2="0" stroke="#ddd" stroke-width="1" opacity="1"/><line transform="translate(0,614)" x2="3200" y2="0" stroke="#ddd" stroke-width="1" opacity="1"/><line transform="translate(0,573)" x2="3200" y2="0" stroke="#ddd" stroke-width="1" opacity="1"/><line transform="translate(0,532)" x2="3200" y2="0" stroke="#ddd" stroke-width="1" opacity="1"/><line transform="translate(0,491)" x2="3200" y2="0" stroke="#ddd" stroke-width="1" opacity="1"/><line transform="translate(0,450)" x2="3200" y2="0" stroke="#ddd" stroke-width="1" opacity="1"/><line transform="translate(0,409)" x2="3200" y2="0" stroke="#ddd" stroke-width="1" opacity="1"/><line transform="translate(0,368)" x2="3200" y2="0" stroke="#ddd" stroke-width="1" opacity="1"/><line transform="translate(0,327)" x2="3200" y2="0" stroke="#ddd" stroke-width="1" opacity="1"/><line transform="translate(0,286)" x2="3200" y2="0" stroke="#ddd" stroke-width="1" opacity="1"/><line transform="translate(0,245)" x2="3200" y2="0" stroke="#ddd" stroke-width="1" opacity="1"/><line transform="translate(0,205)" x2="3200" y2="0" stroke="#ddd" stroke-width="1" opacity="1"/><line transform="translate(0,164)" x2="3200" y2="0" stroke="#ddd" stroke-width="1" opacity="1"/><line transform="translate(0,123)" x2="3200" y2="0" stroke="#ddd" stroke-width="1" opacity="1"/><line transform="translate(0,82)" x2="3200" y2="0" stroke="#ddd" stroke-width="1" opacity="1"/><line transform="translate(0,41)" x2="3200" y2="0" stroke="#ddd" stroke-width="1" opacity="1"/><line transform="translate(0,0)" x2="3200" y2="0" stroke="#ddd" stroke-width="1" opacity="1"/></g></g><path class="foreground" aria-hidden="true" d="" pointer-events="none" display="none"/></g></g><g class="mark-group role-axis" role="graphics-symbol" aria-roledescription="axis" aria-label="X-axis titled 'Stress Pattern' for a discrete scale with 5 values: 0100, 0102, 1000, 1020, 2010"><g transform="translate(0.5,1800.5)"><path class="background" aria-hidden="true" d="M0,0h0v0h0Z" pointer-events="none"/><g><g class="mark-rule role-axis-tick" pointer-events="none"><line transform="translate(320,0)" x2="0" y2="5" stroke="#888" stroke-width="1" opacity="1"/><line transform="translate(960,0)" x2="0" y2="5" stroke="#888" stroke-width="1" opacity="1"/><line transform="translate(1600,0)" x2="0" y2="5" stroke="#888" stroke-width="1" opacity="1"/><line transform="translate(2240,0)" x2="0" y2="5" stroke="#888" stroke-width="1" opacity="1"/><line transform="translate(2880,0)" x2="0" y2="5" stroke="#888" stroke-width="1" opacity="1"/></g><g class="mark-text role-axis-label" pointer-events="none"><text text-anchor="middle" transform="translate(319.5,23)" font-family="sans-serif" font-size="20px" fill="#000" opacity="1">0100</text><text text-anchor="middle" transform="translate(959.5,23)" font-family="sans-serif" font-size="20px" fill="#000" opacity="1">0102</text><text text-anchor="middle" transform="translate(1599.5,23)" font-family="sans-serif" font-size="20px" fill="#000" opacity="1">1000</text><text text-anchor="middle" transform="translate(2239.5,23)" font-family="sans-serif" font-size="20px" fill="#000" opacity="1">1020</text><text text-anchor="middle" transform="translate(2879.5,23)" font-family="sans-serif" font-size="20px" fill="#000" opacity="1">2010</text></g><g class="mark-rule role-axis-domain" pointer-events="none"><line transform="translate(0,0)" x2="3200" y2="0" stroke="#888" stroke-width="1" opacity="1"/></g><g class="mark-text role-axis-title" pointer-events="none"><text text-anchor="middle" transform="translate(1600,47)" font-family="sans-serif" font-size="20px" font-weight="bold" fill="#000" opacity="1">Stress Pattern</text></g></g><path class="foreground" aria-hidden="true" d="" pointer-events="none" display="none"/></g></g><g class="mark-group role-axis" role="graphics-symbol" aria-roledescription="axis" aria-label="Y-axis titled 'Count' for a linear scale with values from 0 to 2,200"><g transform="translate(0.5,0.5)"><path class="background" aria-hidden="true" d="M0,0h0v0h0Z" pointer-events="none"/><g><g class="mark-rule role-axis-tick" pointer-events="none"><line transform="translate(0,1800)" x2="-5" y2="0" stroke="#888" stroke-width="1" opacity="1"/><line transform="translate(0,1759)" x2="-5" y2="0" stroke="#888" stroke-width="1" opacity="1"/><line transform="translate(0,1718)" x2="-5" y2="0" stroke="#888" stroke-width="1" opacity="1"/><line transform="translate(0,1677)" x2="-5" y2="0" stroke="#888" stroke-width="1" opacity="1"/><line transform="translate(0,1636)" x2="-5" y2="0" stroke="#888" stroke-width="1" opacity="1"/><line transform="translate(0,1595)" x2="-5" y2="0" stroke="#888" stroke-width="1" opacity="1"/><line transform="translate(0,1555)" x2="-5" y2="0" stroke="#888" stroke-width="1" opacity="1"/><line transform="translate(0,1514)" x2="-5" y2="0" stroke="#888" stroke-width="1" opacity="1"/><line transform="translate(0,1473)" x2="-5" y2="0" stroke="#888" stroke-width="1" opacity="1"/><line transform="translate(0,1432)" x2="-5" y2="0" stroke="#888" stroke-width="1" opacity="1"/><line transform="translate(0,1391)" x2="-5" y2="0" stroke="#888" stroke-width="1" opacity="1"/><line transform="translate(0,1350)" x2="-5" y2="0" stroke="#888" stroke-width="1" opacity="1"/><line transform="translate(0,1309)" x2="-5" y2="0" stroke="#888" stroke-width="1" opacity="1"/><line transform="translate(0,1268)" x2="-5" y2="0" stroke="#888" stroke-width="1" opacity="1"/><line transform="translate(0,1227)" x2="-5" y2="0" stroke="#888" stroke-width="1" opacity="1"/><line transform="translate(0,1186)" x2="-5" y2="0" stroke="#888" stroke-width="1" opacity="1"/><line transform="translate(0,1145)" x2="-5" y2="0" stroke="#888" stroke-width="1" opacity="1"/><line transform="translate(0,1105)" x2="-5" y2="0" stroke="#888" stroke-width="1" opacity="1"/><line transform="translate(0,1064)" x2="-5" y2="0" stroke="#888" stroke-width="1" opacity="1"/><line transform="translate(0,1023)" x2="-5" y2="0" stroke="#888" stroke-width="1" opacity="1"/><line transform="translate(0,982)" x2="-5" y2="0" stroke="#888" stroke-width="1" opacity="1"/><line transform="translate(0,941)" x2="-5" y2="0" stroke="#888" stroke-width="1" opacity="1"/><line transform="translate(0,900)" x2="-5" y2="0" stroke="#888" stroke-width="1" opacity="1"/><line transform="translate(0,859)" x2="-5" y2="0" stroke="#888" stroke-width="1" opacity="1"/><line transform="translate(0,818)" x2="-5" y2="0" stroke="#888" stroke-width="1" opacity="1"/><line transform="translate(0,777)" x2="-5" y2="0" stroke="#888" stroke-width="1" opacity="1"/><line transform="translate(0,736)" x2="-5" y2="0" stroke="#888" stroke-width="1" opacity="1"/><line transform="translate(0,695)" x2="-5" y2="0" stroke="#888" stroke-width="1" opacity="1"/><line transform="translate(0,655)" x2="-5" y2="0" stroke="#888" stroke-width="1" opacity="1"/><line transform="translate(0,614)" x2="-5" y2="0" stroke="#888" stroke-width="1" opacity="1"/><line transform="translate(0,573)" x2="-5" y2="0" stroke="#888" stroke-width="1" opacity="1"/><line transform="translate(0,532)" x2="-5" y2="0" stroke="#888" stroke-width="1" opacity="1"/><line transform="translate(0,491)" x2="-5" y2="0" stroke="#888" stroke-width="1" opacity="1"/><line transform="translate(0,450)" x2="-5" y2="0" stroke="#888" stroke-width="1" opacity="1"/><line transform="translate(0,409)" x2="-5" y2="0" stroke="#888" stroke-width="1" opacity="1"/><line transform="translate(0,368)" x2="-5" y2="0" stroke="#888" stroke-width="1" opacity="1"/><line transform="translate(0,327)" x2="-5" y2="0" stroke="#888" stroke-width="1" opacity="1"/><line transform="translate(0,286)" x2="-5" y2="0" stroke="#888" stroke-width="1" opacity="1"/><line transform="translate(0,245)" x2="-5" y2="0" stroke="#888" stroke-width="1" opacity="1"/><line transform="translate(0,205)" x2="-5" y2="0" stroke="#888" stroke-width="1" opacity="1"/><line transform="translate(0,164)" x2="-5" y2="0" stroke="#888" stroke-width="1" opacity="1"/><line transform="translate(0,123)" x2="-5" y2="0" stroke="#888" stroke-width="1" opacity="1"/><line transform="translate(0,82)" x2="-5" y2="0" stroke="#888" stroke-width="1" opacity="1"/><line transform="translate(0,41)" x2="-5" y2="0" stroke="#888" stroke-width="1" opacity="1"/><line transform="translate(0,0)" x2="-5" y2="0" stroke="#888" stroke-width="1" opacity="1"/></g><g class="mark-text role-axis-label" pointer-events="none"><text text-anchor="end" transform="translate(-7,1806)" font-family="sans-serif" font-size="20px" fill="#000" opacity="1">0</text><text text-anchor="end" transform="translate(-7,1765.0909090909092)" font-family="sans-serif" font-size="20px" fill="#000" opacity="1">50</text><text text-anchor="end" transform="translate(-7,1724.1818181818182)" font-family="sans-serif" font-size="20px" fill="#000" opacity="1">100</text><text text-anchor="end" transform="translate(-7,1683.2727272727275)" font-family="sans-serif" font-size="20px" fill="#000" opacity="1">150</text><text text-anchor="end" transform="translate(-7,1642.3636363636363)" font-family="sans-serif" font-size="20px" fill="#000" opacity="1">200</text><text text-anchor="end" transform="translate(-7,1601.4545454545455)" font-family="sans-serif" font-size="20px" fill="#000" opacity="1">250</text><text text-anchor="end" transform="translate(-7,1560.5454545454545)" font-family="sans-serif" font-size="20px" fill="#000" opacity="1">300</text><text text-anchor="end" transform="translate(-7,1519.6363636363637)" font-family="sans-serif" font-size="20px" fill="#000" opacity="1">350</text><text text-anchor="end" transform="translate(-7,1478.7272727272725)" font-family="sans-serif" font-size="20px" fill="#000" opacity="1">400</text><text text-anchor="end" transform="translate(-7,1437.8181818181818)" font-family="sans-serif" font-size="20px" fill="#000" opacity="1">450</text><text text-anchor="end" transform="translate(-7,1396.9090909090908)" font-family="sans-serif" font-size="20px" fill="#000" opacity="1">500</text><text text-anchor="end" transform="translate(-7,1356)" font-family="sans-serif" font-size="20px" fill="#000" opacity="1">550</text><text text-anchor="end" transform="translate(-7,1315.0909090909092)" font-family="sans-serif" font-size="20px" fill="#000" opacity="1">600</text><text text-anchor="end" transform="translate(-7,1274.1818181818182)" font-family="sans-serif" font-size="20px" fill="#000" opacity="1">650</text><text text-anchor="end" transform="translate(-7,1233.2727272727275)" font-family="sans-serif" font-size="20px" fill="#000" opacity="1">700</text><text text-anchor="end" transform="translate(-7,1192.3636363636365)" font-family="sans-serif" font-size="20px" fill="#000" opacity="1">750</text><text text-anchor="end" transform="translate(-7,1151.4545454545455)" font-family="sans-serif" font-size="20px" fill="#000" opacity="1">800</text><text text-anchor="end" transform="translate(-7,1110.5454545454545)" font-family="sans-serif" font-size="20px" fill="#000" opacity="1">850</text><text text-anchor="end" transform="translate(-7,1069.6363636363635)" font-family="sans-serif" font-size="20px" fill="#000" opacity="1">900</text><text text-anchor="end" transform="translate(-7,1028.7272727272725)" font-family="sans-serif" font-size="20px" fill="#000" opacity="1">950</text><text text-anchor="end" transform="translate(-7,987.8181818181818)" font-family="sans-serif" font-size="20px" fill="#000" opacity="1">1,000</text><text text-anchor="end" transform="translate(-7,946.9090909090909)" font-family="sans-serif" font-size="20px" fill="#000" opacity="1">1,050</text><text text-anchor="end" transform="translate(-7,906)" font-family="sans-serif" font-size="20px" fill="#000" opacity="1">1,100</text><text text-anchor="end" transform="translate(-7,865.0909090909091)" font-family="sans-serif" font-size="20px" fill="#000" opacity="1">1,150</text><text text-anchor="end" transform="translate(-7,824.1818181818182)" font-family="sans-serif" font-size="20px" fill="#000" opacity="1">1,200</text><text text-anchor="end" transform="translate(-7,783.2727272727271)" font-family="sans-serif" font-size="20px" fill="#000" opacity="1">1,250</text><text text-anchor="end" transform="translate(-7,742.3636363636363)" font-family="sans-serif" font-size="20px" fill="#000" opacity="1">1,300</text><text text-anchor="end" transform="translate(-7,701.4545454545454)" font-family="sans-serif" font-size="20px" fill="#000" opacity="1">1,350</text><text text-anchor="end" transform="translate(-7,660.5454545454546)" font-family="sans-serif" font-size="20px" fill="#000" opacity="1">1,400</text><text text-anchor="end" transform="translate(-7,619.6363636363637)" font-family="sans-serif" font-size="20px" fill="#000" opacity="1">1,450</text><text text-anchor="end" transform="translate(-7,578.7272727272729)" font-family="sans-serif" font-size="20px" fill="#000" opacity="1">1,500</text><text text-anchor="end" transform="translate(-7,537.8181818181818)" font-family="sans-serif" font-size="20px" fill="#000" opacity="1">1,550</text><text text-anchor="end" transform="translate(-7,496.9090909090909)" font-family="sans-serif" font-size="20px" fill="#000" opacity="1">1,600</text><text text-anchor="end" transform="translate(-7,456)" font-family="sans-serif" font-size="20px" fill="#000" opacity="1">1,650</text><text text-anchor="end" transform="translate(-7,415.0909090909091)" font-family="sans-serif" font-size="20px" fill="#000" opacity="1">1,700</text><text text-anchor="end" transform="translate(-7,374.18181818181824)" font-family="sans-serif" font-size="20px" fill="#000" opacity="1">1,750</text><text text-anchor="end" transform="translate(-7,333.2727272727272)" font-family="sans-serif" font-size="20px" fill="#000" opacity="1">1,800</text><text text-anchor="end" transform="translate(-7,292.3636363636363)" font-family="sans-serif" font-size="20px" fill="#000" opacity="1">1,850</text><text text-anchor="end" transform="translate(-7,251.45454545454544)" font-family="sans-serif" font-size="20px" fill="#000" opacity="1">1,900</text><text text-anchor="end" transform="translate(-7,210.54545454545456)" font-family="sans-serif" font-size="20px" fill="#000" opacity="1">1,950</text><text text-anchor="end" transform="translate(-7,169.63636363636368)" font-family="sans-serif" font-size="20px" fill="#000" opacity="1">2,000</text><text text-anchor="end" transform="translate(-7,128.7272727272728)" font-family="sans-serif" font-size="20px" fill="#000" opacity="1">2,050</text><text text-anchor="end" transform="translate(-7,87.81818181818174)" font-family="sans-serif" font-size="20px" fill="#000" opacity="1">2,100</text><text text-anchor="end" transform="translate(-7,46.90909090909087)" font-family="sans-serif" font-size="20px" fill="#000" opacity="1">2,150</text><text text-anchor="end" transform="translate(-7,6)" font-family="sans-serif" font-size="20px" fill="#000" opacity="1">2,200</text></g><g class="mark-rule role-axis-domain" pointer-events="none"><line transform="translate(0,1800)" x2="0" y2="-1800" stroke="#888" stroke-width="1" opacity="1"/></g><g class="mark-text role-axis-title" pointer-events="none"><text text-anchor="middle" transform="translate(-61.048828125,900) rotate(-90) translate(0,-4)" font-family="sans-serif" font-size="20px" font-weight="bold" fill="#000" opacity="1">Count</text></g></g><path class="foreground" aria-hidden="true" d="" pointer-events="none" display="none"/></g></g><g class="mark-rect role-mark layer_0_marks" role="graphics-object" aria-roledescription="rect mark container"><path aria-label="Stress Pattern: 0100; Count: 2040" role="graphics-symbol" aria-roledescription="bar" d="M295,130.90909090909096h50v1669.090909090909h-50Z" fill="#4c78a8"/><path aria-label="Stress Pattern: 2010; Count: 1477" role="graphics-symbol" aria-roledescription="bar" d="M2855,591.5454545454545h50v1208.4545454545455h-50Z" fill="#4c78a8"/><path aria-label="Stress Pattern: 1020; Count: 1134" role="graphics-symbol" aria-roledescription="bar" d="M2215,872.1818181818181h50v927.8181818181819h-50Z" fill="#4c78a8"/><path aria-label="Stress Pattern: 1000; Count: 359" role="graphics-symbol" aria-roledescription="bar" d="M1575,1506.2727272727273h50v293.72727272727275h-50Z" fill="#4c78a8"/><path aria-label="Stress Pattern: 0102; Count: 354" role="graphics-symbol" aria-roledescription="bar" d="M935,1510.3636363636365h50v289.6363636363635h-50Z" fill="#4c78a8"/></g><g class="mark-text role-mark layer_1_marks" role="graphics-object" aria-roledescription="text mark container"><text aria-label="Stress Pattern: 0100; Count: 2040; count: 2040" role="graphics-symbol" aria-roledescription="text mark" text-anchor="middle" transform="translate(320,124.90909090909096)" font-family="sans-serif" font-size="20px" fill="black">2040</text><text aria-label="Stress Pattern: 2010; Count: 1477; count: 1477" role="graphics-symbol" aria-roledescription="text mark" text-anchor="middle" transform="translate(2880,585.5454545454545)" font-family="sans-serif" font-size="20px" fill="black">1477</text><text aria-label="Stress Pattern: 1020; Count: 1134; count: 1134" role="graphics-symbol" aria-roledescription="text mark" text-anchor="middle" transform="translate(2240,866.1818181818181)" font-family="sans-serif" font-size="20px" fill="black">1134</text><text aria-label="Stress Pattern: 1000; Count: 359; count: 359" role="graphics-symbol" aria-roledescription="text mark" text-anchor="middle" transform="translate(1600,1500.2727272727273)" font-family="sans-serif" font-size="20px" fill="black">359</text><text aria-label="Stress Pattern: 0102; Count: 354; count: 354" role="graphics-symbol" aria-roledescription="text mark" text-anchor="middle" transform="translate(960,1504.3636363636365)" font-family="sans-serif" font-size="20px" fill="black">354</text></g><g class="mark-group role-title"><g transform="translate(1600,-39)"><path class="background" aria-hidden="true" d="M0,0h0v0h0Z" pointer-events="none"/><g><g class="mark-text role-title-text" role="graphics-symbol" aria-roledescription="title" aria-label="Title text 'Stress Pattern in 4-Syllable English Words'" pointer-events="none"><text text-anchor="middle" transform="translate(0,20)" font-family="sans-serif" font-size="25px" font-weight="bold" fill="#000" opacity="1">Stress Pattern in 4-Syllable English Words</text></g></g><path class="foreground" aria-hidden="true" d="" pointer-events="none" display="none"/></g></g></g><path class="foreground" aria-hidden="true" d="" display="none"/></g></g></g></svg>