<svg xmlns="http://www.w3.org/2000/svg" xmlns:xlink="http://www.w3.org/1999/xlink" version="1.1" class="marks" width="3275" height="1900" viewBox="0 0 3275 1900"><rect width="3275" height="1900" fill="white"/><g fill="none" stroke-miterlimit="10" transform="translate(70,44)"><g class="mark-group role-frame root" role="graphics-object" aria-roledescription="group mark container"><g transform="translate(0,0)"><path class="background" aria-hidden="true" d="M0.5,0.5h3200v1800h-3200Z" stroke="#ddd"/><g><g class="mark-group role-axis" aria-hidden="true"><g transform="translate(0.5,0.5)"><path class="background" aria-hidden="true" d="M0,0h0v0h0Z" pointer-events="none"/><g><g class="mark-rule role-axis-grid" pointer-events="none"><line transform="translate(0,1800)" x2="3200" y2="0" stroke="#ddd" stroke-width="1" opacity="1"/><line transform="translate(0,1755)" x2="3200" y2="0" stroke="#ddd" stroke-width="1" opacity="1"/><line transform="translate(0,1710)" x2="3200" y2="0" stroke="#ddd" stroke-width="1" opacity="1"/><line transform="translate(0,1665)" x2="3200" y2="0" stroke="#ddd" stroke-width="1" opacity="1"/><line transform="translate(0,1620)" x2="3200" y2="0" stroke="#ddd" stroke-width="1" opacity="1"/><line transform="translate(0,1575)" x2="3200" y2="0" stroke="#ddd" stroke-width="1" opacity="1"/><line transform="translate(0,1530)" x2="3200" y2="0" stroke="#ddd" stroke-width="1" opacity="1"/><line transform="translate(0,1485)" x2="3200" y2="0" stroke="#ddd" stroke-width="1" opacity="1"/><line transform="translate(0,1440)" x2="3200" y2="0" stroke="#ddd" stroke-width="1" opacity="1"/><line transform="translate(0,1395)" x2="3200" y2="0" stroke="#ddd" stroke-width="1" opacity="1"/><line transform="translate(0,1350)" x2="3200" y2="0" stroke="#ddd" stroke-width="1" opacity="1"/><line transform="translate(0,1305)" x2="3200" y2="0" stroke="#ddd" stroke-width="1" opacity="1"/><line transform="translate(0,1260)" x2="3200" y2="0" stroke="#ddd" stroke-width="1" opacity="1"/><line transform="translate(0,1215)" x2="3200" y2="0" stroke="#ddd" stroke-width="1" opacity="1"/><line transform="translate(0,1170)" x2="3200" y2="0" stroke="#ddd" stroke-width="1" opacity="1"/><line transform="translate(0,1125)" x2="3200" y2="0" stroke="#ddd" stroke-width="1" opacity="1"/><line transform="translate(0,1080)" x2="3200" y2="0" stroke="#ddd" stroke-width="1" opacity="1"/><line transform="translate(0,1035)" x2="3200" y2="0" stroke="#ddd" stroke-width="1" opacity="1"/><line transform="translate(0,990)" x2="3200" y2="0" stroke="#ddd" stroke-width="1" opacity="1"/><line transform="translate(0,945)" x2="3200" y2="0" stroke="#ddd" stroke-width="1" opacity="1"/><line transform="translate(0,900)" x2="3200" y2="0" stroke="#ddd" stroke-width="1" opacity="1"/><line transform="translate(0,855)" x2="3200" y2="0" stroke="#ddd" stroke-width="1" opacity="1"/><line transform="translate(0,810)" x2="3200" y2="0" stroke="#ddd" stroke-width="1" opacity="1"/><line transform="translate(0,765)" x2="3200" y2="0" stroke="#ddd" stroke-width="1" opacity="1"/><line transform="translate(0,720)" x2="3200" y2="0" stroke="#ddd" stroke-width="1" opacity="1"/><line transform="translate(0,675)" x2="3200" y2="0" stroke="#ddd" stroke-width="1" opacity="1"/><line transform="translate(0,630)" x2="3200" y2="0" stroke="#ddd" stroke-width="1" opacity="1"/><line transform="translate(0,585)" x2="3200" y2="0" stroke="#ddd" stroke-width="1" opacity="1"/><line transform="translate(0,540)" x2="3200" y2="0" stroke="#ddd" stroke-width="1" opacity="1"/><line transform="translate(0,495)" x2="3200" y2="0" stroke="#ddd" stroke-width="1" opacity="1"/><line transform="translate(0,450)" x2="3200" y2="0" stroke="#ddd" stroke-width="1" opacity="1"/><line transform="translate(0,405)" x2="3200" y2="0" stroke="#ddd" stroke-width="1" opacity="1"/><line transform="translate(0,360)" x2="3200" y2="0" stroke="#ddd" stroke-width="1" opacity="1"/><line transform="translate(0,315)" x2="3200" y2="0" stroke="#ddd" stroke-width="1" opacity="1"/><line transform="translate(0,270)" x2="3200" y2="0" stroke="#ddd" stroke-width="1" opacity="1"/><line transform="translate(0,225)" x2="3200" y2="0" stroke="#ddd" stroke-width="1" opacity="1"/><line transform="translate(0,180)" x2="3200" y2="0" stroke="#ddd" stroke-width="1" opacity="1"/><line transform="translate(0,135)" x2="3200" y2="0" stroke="#ddd" stroke-width="1" opacity="1"/><line transform="translate(0,90)" x2="3200" y2="0" stroke="#ddd" stroke-width="1" opacity="1"/><line transform="translate(0,45)" x2="3200" y2="0" stroke="#ddd" stroke-width="1" opacity="1"/><line transform="translate(0,0)" x2="3200" y2="0" stroke="#ddd" stroke-width="1" opacity="1"/></g></g><path class="foreground" aria-hidden="true" d="" pointer-events="none" display="none"/></g></g><g class="mark-group role-axis" role="graphics-symbol" aria-roledescription="axis" aria-label="X-axis titled 'Stress Pattern' for a discrete scale with 5 values: 01000, 01020, 02010, 20010, 20100"><g transform="translate(0.5,1800.5)"><path class="background" aria-hidden="true" d="M0,0h0v0h0Z" pointer-events="none"/><g><g class="mark-rule role-axis-tick" pointer-events="none"><line transform="translate(320,0)" x2="0" y2="5" stroke="#888" stroke-width="1" opacity="1"/><line transform="translate(960,0)" x2="0" y2="5" stroke="#888" stroke-width="1" opacity="1"/><line transform="translate(1600,0)" x2="0" y2="5" stroke="#888" stroke-width="1" opacity="1"/><line transform="translate(2240,0)" x2="0" y2="5" stroke="#888" stroke-width="1" opacity="1"/><line transform="translate(2880,0)" x2="0" y2="5" stroke="#888" stroke-width="1" opacity="1"/></g><g class="mark-text role-axis-label" pointer-events="none"><text text-anchor="middle" transform="translate(319.5,23)" font-family="sans-serif" font-size="20px" fill="#000" opacity="1">01000</text><text text-anchor="middle" transform="translate(959.5,23)" font-family="sans-serif" font-size="20px" fill="#000" opacity="1">01020</text><text text-anchor="middle" transform="translate(1599.5,23)" font-family="sans-serif" font-size="20px" fill="#000" opacity="1">02010</text><text text-anchor="middle" transform="translate(2239.5,23)" font-family="sans-serif" font-size="20px" fill="#000" opacity="1">20010</text><text text-anchor="middle" transform="translate(2879.5,23)" font-family="sans-serif" font-size="20px" fill="#000" opacity="1">20100</text></g><g class="mark-rule role-axis-domain" pointer-events="none"><line transform="translate(0,0)" x2="3200" y2="0" stroke="#888" stroke-width="1" opacity="1"/></g><g class="mark-text role-axis-title" pointer-events="none"><text text-anchor="middle" transform="translate(1600,47)" font-family="sans-serif" font-size="20px" font-weight="bold" fill="#000" opacity="1">Stress Pattern</text></g></g><path class="foreground" aria-hidden="true" d="" pointer-events="none" display="none"/></g></g><g class="mark-group role-axis" role="graphics-symbol" aria-roledescription="axis" aria-label="Y-axis titled 'Count' for a linear scale with values from 0 to 800"><g transform="translate(0.5,0.5)"><path class="background" aria-hidden="true" d="M0,0h0v0h0Z" pointer-events="none"/><g><g class="mark-rule role-axis-tick" pointer-events="none"><line transform="translate(0,1800)" x2="-5" y2="0" stroke="#888" stroke-width="1" opacity="1"/><line transform="translate(0,1755)" x2="-5" y2="0" stroke="#888" stroke-width="1" opacity="1"/><line transform="translate(0,1710)" x2="-5" y2="0" stroke="#888" stroke-width="1" opacity="1"/><line transform="translate(0,1665)" x2="-5" y2="0" stroke="#888" stroke-width="1" opacity="1"/><line transform="translate(0,1620)" x2="-5" y2="0" stroke="#888" stroke-width="1" opacity="1"/><line transform="translate(0,1575)" x2="-5" y2="0" stroke="#888" stroke-width="1" opacity="1"/><line transform="translate(0,1530)" x2="-5" y2="0" stroke="#888" stroke-width="1" opacity="1"/><line transform="translate(0,1485)" x2="-5" y2="0" stroke="#888" stroke-width="1" opacity="1"/><line transform="translate(0,1440)" x2="-5" y2="0" stroke="#888" stroke-width="1" opacity="1"/><line transform="translate(0,1395)" x2="-5" y2="0" stroke="#888" stroke-width="1" opacity="1"/><line transform="translate(0,1350)" x2="-5" y2="0" stroke="#888" stroke-width="1" opacity="1"/><line transform="translate(0,1305)" x2="-5" y2="0" stroke="#888" stroke-width="1" opacity="1"/><line transform="translate(0,1260)" x2="-5" y2="0" stroke="#888" stroke-width="1" opacity="1"/><line transform="translate(0,1215)" x2="-5" y2="0" stroke="#888" stroke-width="1" opacity="1"/><line transform="translate(0,1170)" x2="-5" y2="0" stroke="#888" stroke-width="1" opacity="1"/><line transform="translate(0,1125)" x2="-5" y2="0" stroke="#888" stroke-width="1" opacity="1"/><line transform="translate(0,1080)" x2="-5" y2="0" stroke="#888" stroke-width="1" opacity="1"/><line transform="translate(0,1035)" x2="-5" y2="0" stroke="#888" stroke-width="1" opacity="1"/><line transform="translate(0,990)" x2="-5" y2="0" stroke="#888" stroke-width="1" opacity="1"/><line transform="translate(0,945)" x2="-5" y2="0" stroke="#888" stroke-width="1" opacity="1"/><line transform="translate(0,900)" x2="-5" y2="0" stroke="#888" stroke-width="1" opacity="1"/><line transform="translate(0,855)" x2="-5" y2="0" stroke="#888" stroke-width="1" opacity="1"/><line transform="translate(0,810)" x2="-5" y2="0" stroke="#888" stroke-width="1" opacity="1"/><line transform="translate(0,765)" x2="-5" y2="0" stroke="#888" stroke-width="1" opacity="1"/><line transform="translate(0,720)" x2="-5" y2="0" stroke="#888" stroke-width="1" opacity="1"/><line transform="translate(0,675)" x2="-5" y2="0" stroke="#888" stroke-width="1" opacity="1"/><line transform="translate(0,630)" x2="-5" y2="0" stroke="#888" stroke-width="1" opacity="1"/><line transform="translate(0,585)" x2="-5" y2="0" stroke="#888" stroke-width="1" opacity="1"/><line transform="translate(0,540)" x2="-5" y2="0" stroke="#888" stroke-width="1" opacity="1"/><line transform="translate(0,495)" x2="-5" y2="0" stroke="#888" stroke-width="1" opacity="1"/><line transform="translate(0,450)" x2="-5" y2="0" stroke="#888" stroke-width="1" opacity="1"/><line transform="translate(0,405)" x2="-5" y2="0" stroke="#888" stroke-width="1" opacity="1"/><line transform="translate(0,360)" x2="-5" y2="0" stroke="#888" stroke-width="1" opacity="1"/><line transform="translate(0,315)" x2="-5" y2="0" stroke="#888" stroke-width="1" opacity="1"/><line transform="translate(0,270)" x2="-5" y2="0" stroke="#888" stroke-width="1" opacity="1"/><line transform="translate(0,225)" x2="-5" y2="0" stroke="#888" stroke-width="1" opacity="1"/><line transform="translate(0,180)" x2="-5" y2="0" stroke="#888" stroke-width="1" opacity="1"/><line transform="translate(0,135)" x2="-5" y2="0" stroke="#888" stroke-width="1" opacity="1"/><line transform="translate(0,90)" x2="-5" y2="0" stroke="#888" stroke-width="1" opacity="1"/><line transform="translate(0,45)" x2="-5" y2="0" stroke="#888" stroke-width="1" opacity="1"/><line transform="translate(0,0)" x2="-5" y2="0" stroke="#888" stroke-width="1" opacity="1"/></g><g class="mark-text role-axis-label" pointer-events="none"><text text-anchor="end" transform="translate(-7,1806)" font-family="sans-serif" font-size="20px" fill="#000" opacity="1">0</text><text text-anchor="end" transform="translate(-7,1761)" font-family="sans-serif" font-size="20px" fill="#000" opacity="1">20</text><text text-anchor="end" transform="translate(-7,1716)" font-family="sans-serif" font-size="20px" fill="#000" opacity="1">40</text><text text-anchor="end" transform="translate(-7,1671)" font-family="sans-serif" font-size="20px" fill="#000" opacity="1">60</text><text text-anchor="end" transform="translate(-7,1626)" font-family="sans-serif" font-size="20px" fill="#000" opacity="1">80</text><text text-anchor="end" transform="translate(-7,1581)" font-family="sans-serif" font-size="20px" fill="#000" opacity="1">100</text><text text-anchor="end" transform="translate(-7,1536)" font-family="sans-serif" font-size="20px" fill="#000" opacity="1">120</text><text text-anchor="end" transform="translate(-7,1491)" font-family="sans-serif" font-size="20px" fill="#000" opacity="1">140</text><text text-anchor="end" transform="translate(-7,1446)" font-family="sans-serif" font-size="20px" fill="#000" opacity="1">160</text><text text-anchor="end" transform="translate(-7,1401)" font-family="sans-serif" font-size="20px" fill="#000" opacity="1">180</text><text text-anchor="end" transform="translate(-7,1356)" font-family="sans-serif" font-size="20px" fill="#000" opacity="1">200</text><text text-anchor="end" transform="translate(-7,1311)" font-family="sans-serif" font-size="20px" fill="#000" opacity="1">220</text><text text-anchor="end" transform="translate(-7,1266)" font-family="sans-serif" font-size="20px" fill="#000" opacity="1">240</text><text text-anchor="end" transform="translate(-7,1221)" font-family="sans-serif" font-size="20px" fill="#000" opacity="1">260</text><text text-anchor="end" transform="translate(-7,1176)" font-family="sans-serif" font-size="20px" fill="#000" opacity="1">280</text><text text-anchor="end" transform="translate(-7,1131)" font-family="sans-serif" font-size="20px" fill="#000" opacity="1">300</text><text text-anchor="end" transform="translate(-7,1086)" font-family="sans-serif" font-size="20px" fill="#000" opacity="1">320</text><text text-anchor="end" transform="translate(-7,1041)" font-family="sans-serif" font-size="20px" fill="#000" opacity="1">340</text><text text-anchor="end" transform="translate(-7,996.0000000000001)" font-family="sans-serif" font-size="20px" fill="#000" opacity="1">360</text><text text-anchor="end" transform="translate(-7,951)" font-family="sans-serif" font-size="20px" fill="#000" opacity="1">380</text><text text-anchor="end" transform="translate(-7,906)" font-family="sans-serif" font-size="20px" fill="#000" opacity="1">400</text><text text-anchor="end" transform="translate(-7,861)" font-family="sans-serif" font-size="20px" fill="#000" opacity="1">420</text><text text-anchor="end" transform="translate(-7,815.9999999999999)" font-family="sans-serif" font-size="20px" fill="#000" opacity="1">440</text><text text-anchor="end" transform="translate(-7,771.0000000000001)" font-family="sans-serif" font-size="20px" fill="#000" opacity="1">460</text><text text-anchor="end" transform="translate(-7,726)" font-family="sans-serif" font-size="20px" fill="#000" opacity="1">480</text><text text-anchor="end" transform="translate(-7,681)" font-family="sans-serif" font-size="20px" fill="#000" opacity="1">500</text><text text-anchor="end" transform="translate(-7,636)" font-family="sans-serif" font-size="20px" fill="#000" opacity="1">520</text><text text-anchor="end" transform="translate(-7,590.9999999999999)" font-family="sans-serif" font-size="20px" fill="#000" opacity="1">540</text><text text-anchor="end" transform="translate(-7,546.0000000000001)" font-family="sans-serif" font-size="20px" fill="#000" opacity="1">560</text><text text-anchor="end" transform="translate(-7,501.00000000000006)" font-family="sans-serif" font-size="20px" fill="#000" opacity="1">580</text><text text-anchor="end" transform="translate(-7,456)" font-family="sans-serif" font-size="20px" fill="#000" opacity="1">600</text><text text-anchor="end" transform="translate(-7,410.99999999999994)" font-family="sans-serif" font-size="20px" fill="#000" opacity="1">620</text><text text-anchor="end" transform="translate(-7,365.99999999999994)" font-family="sans-serif" font-size="20px" fill="#000" opacity="1">640</text><text text-anchor="end" transform="translate(-7,321.00000000000006)" font-family="sans-serif" font-size="20px" fill="#000" opacity="1">660</text><text text-anchor="end" transform="translate(-7,276.00000000000006)" font-family="sans-serif" font-size="20px" fill="#000" opacity="1">680</text><text text-anchor="end" transform="translate(-7,231)" font-family="sans-serif" font-size="20px" fill="#000" opacity="1">700</text><text text-anchor="end" transform="translate(-7,185.99999999999997)" font-family="sans-serif" font-size="20px" fill="#000" opacity="1">720</text><text text-anchor="end" transform="translate(-7,140.99999999999991)" font-family="sans-serif" font-size="20px" fill="#000" opacity="1">740</text><text text-anchor="end" transform="translate(-7,96.00000000000009)" font-family="sans-serif" font-size="20px" fill="#000" opacity="1">760</text><text text-anchor="end" transform="translate(-7,51.00000000000004)" font-family="sans-serif" font-size="20px" fill="#000" opacity="1">780</text><text text-anchor="end" transform="translate(-7,6)" font-family="sans-serif" font-size="20px" fill="#000" opacity="1">800</text></g><g class="mark-rule role-axis-domain" pointer-events="none"><line transform="translate(0,1800)" x2="0" y2="-1800" stroke="#888" stroke-width="1" opacity="1"/></g><g class="mark-text role-axis-title" pointer-events="none"><text text-anchor="middle" transform="translate(-44.369140625,900) rotate(-90) translate(0,-4)" font-family="sans-serif" font-size="20px" font-weight="bold" fill="#000" opacity="1">Count</text></g></g><path class="foreground" aria-hidden="true" d="" pointer-events="none" display="none"/></g></g><g class="mark-rect role-mark layer_0_marks" role="graphics-object" aria-roledescription="rect mark container"><path aria-label="Stress Pattern: 20100; Count: 701" role="graphics-symbol" aria-roledescription="bar" d="M2855,222.75000000000006h50v1577.25h-50Z" fill="#4c78a8"/><path aria-label="Stress Pattern: 01020; Count: 397" role="graphics-symbol" aria-roledescription="bar" d="M935,906.7499999999999h50v893.2500000000001h-50Z" fill="#4c78a8"/><path aria-label="Stress Pattern: 01000; Count: 225" role="graphics-symbol" aria-roledescription="bar" d="M295,1293.75h50v506.25h-50Z" fill="#4c78a8"/><path aria-label="Stress Pattern: 02010; Count: 217" role="graphics-symbol" aria-roledescription="bar" d="M1575,1311.75h50v488.25h-50Z" fill="#4c78a8"/><path aria-label="Stress Pattern: 20010; Count: 201" role="graphics-symbol" aria-roledescription="bar" d="M2215,1347.75h50v452.25h-50Z" fill="#4c78a8"/></g><g class="mark-text role-mark layer_1_marks" role="graphics-object" aria-roledescription="text mark container"><text aria-label="Stress Pattern: 20100; Count: 701; count: 701" role="graphics-symbol" aria-roledescription="text mark" text-anchor="middle" transform="translate(2880,216.75000000000006)" font-family="sans-serif" font-size="20px" fill="black">701</text><text aria-label="Stress Pattern: 01020; Count: 397; count: 397" role="graphics-symbol" aria-roledescription="text mark" text-anchor="middle" transform="translate(960,900.7499999999999)" font-family="sans-serif" font-size="20px" fill="black">397</text><text aria-label="Stress Pattern: 01000; Count: 225; count: 225" role="graphics-symbol" aria-roledescription="text mark" text-anchor="middle" transform="translate(320,1287.75)" font-family="sans-serif" font-size="20px" fill="black">225</text><text aria-label="Stress Pattern: 02010; Count: 217; count: 217" role="graphics-symbol" aria-roledescription="text mark" text-anchor="middle" transform="translate(1600,1305.75)" font-family="sans-serif" font-size="20px" fill="black">217</text><text aria-label="Stress Pattern: 20010; Count: 201; count: 201" role="graphics-symbol" aria-roledescription="text mark" text-anchor="middle" transform="translate(2240,1341.75)" font-family="sans-serif" font-size="20px" fill="black">201</text></g><g class="mark-group role-title"><g transform="translate(1600,-39)"><path class="background" aria-hidden="true" d="M0,0h0v0h0Z" pointer-events="none"/><g><g class="mark-text role-title-text" role="graphics-symbol" aria-roledescription="title" aria-label="Title text 'Stress Pattern in 5-Syllable English Words'" pointer-events="none"><text text-anchor="middle" transform="translate(0,20)" font-family="sans-serif" font-size="25px" font-weight="bold" fill="#000" opacity="1">Stress Pattern in 5-Syllable English Words</text></g></g><path class="foreground" aria-hidden="true" d="" pointer-events="none" display="none"/></g></g></g><path class="foreground" aria-hidden="true" d="" display="none"/></g></g></g></svg>