<svg xmlns="http://www.w3.org/2000/svg" xmlns:xlink="http://www.w3.org/1999/xlink" version="1.1" class="marks" width="3264" height="1900" viewBox="0 0 3264 1900"><rect width="3264" height="1900" fill="white"/><g fill="none" stroke-miterlimit="10" transform="translate(59,44)"><g class="mark-group role-frame root" role="graphics-object" aria-roledescription="group mark container"><g transform="translate(0,0)"><path class="background" aria-hidden="true" d="M0.5,0.5h3200v1800h-3200Z" stroke="#ddd"/><g><g class="mark-group role-axis" aria-hidden="true"><g transform="translate(0.5,0.5)"><path class="background" aria-hidden="true" d="M0,0h0v0h0Z" pointer-events="none"/><g><g class="mark-rule role-axis-grid" pointer-events="none"><line transform="translate(0,1800)" x2="3200" y2="0" stroke="#ddd" stroke-width="1" opacity="1"/><line transform="translate(0,1760)" x2="3200" y2="0" stroke="#ddd" stroke-width="1" opacity="1"/><line transform="translate(0,1720)" x2="3200" y2="0" stroke="#ddd" stroke-width="1" opacity="1"/><line transform="translate(0,1680)" x2="3200" y2="0" stroke="#ddd" stroke-width="1" opacity="1"/><line transform="translate(0,1640)" x2="3200" y2="0" stroke="#ddd" stroke-width="1" opacity="1"/><line transform="translate(0,1600)" x2="3200" y2="0" stroke="#ddd" stroke-width="1" opacity="1"/><line transform="translate(0,1560)" x2="3200" y2="0" stroke="#ddd" stroke-width="1" opacity="1"/><line transform="translate(0,1520)" x2="3200" y2="0" stroke="#ddd" stroke-width="1" opacity="1"/><line transform="translate(0,1480)" x2="3200" y2="0" stroke="#ddd" stroke-width="1" opacity="1"/><line transform="translate(0,1440)" x2="3200" y2="0" stroke="#ddd" stroke-width="1" opacity="1"/><line transform="translate(0,1400)" x2="3200" y2="0" stroke="#ddd" stroke-width="1" opacity="1"/><line transform="translate(0,1360)" x2="3200" y2="0" stroke="#ddd" stroke-width="1" opacity="1"/><line transform="translate(0,1320)" x2="3200" y2="0" stroke="#ddd" stroke-width="1" opacity="1"/><line transform="translate(0,1280)" x2="3200" y2="0" stroke="#ddd" stroke-width="1" opacity="1"/><line transform="translate(0,1240)" x2="3200" y2="0" stroke="#ddd" stroke-width="1" opacity="1"/><line transform="translate(0,1200)" x2="3200" y2="0" stroke="#ddd" stroke-width="1" opacity="1"/><line transform="translate(0,1160)" x2="3200" y2="0" stroke="#ddd" stroke-width="1" opacity="1"/><line transform="translate(0,1120)" x2="3200" y2="0" stroke="#ddd" stroke-width="1" opacity="1"/><line transform="translate(0,1080)" x2="3200" y2="0" stroke="#ddd" stroke-width="1" opacity="1"/><line transform="translate(0,1040)" x2="3200" y2="0" stroke="#ddd" stroke-width="1" opacity="1"/><line transform="translate(0,1000)" x2="3200" y2="0" stroke="#ddd" stroke-width="1" opacity="1"/><line transform="translate(0,960)" x2="3200" y2="0" stroke="#ddd" stroke-width="1" opacity="1"/><line transform="translate(0,920)" x2="3200" y2="0" stroke="#ddd" stroke-width="1" opacity="1"/><line transform="translate(0,880)" x2="3200" y2="0" stroke="#ddd" stroke-width="1" opacity="1"/><line transform="translate(0,840)" x2="3200" y2="0" stroke="#ddd" stroke-width="1" opacity="1"/><line transform="translate(0,800)" x2="3200" y2="0" stroke="#ddd" stroke-width="1" opacity="1"/><line transform="translate(0,760)" x2="3200" y2="0" stroke="#ddd" stroke-width="1" opacity="1"/><line transform="translate(0,720)" x2="3200" y2="0" stroke="#ddd" stroke-width="1" opacity="1"/><line transform="translate(0,680)" x2="3200" y2="0" stroke="#ddd" stroke-width="1" opacity="1"/><line transform="translate(0,640)" x2="3200" y2="0" stroke="#ddd" stroke-width="1" opacity="1"/><line transform="translate(0,600)" x2="3200" y2="0" stroke="#ddd" stroke-width="1" opacity="1"/><line transform="translate(0,560)" x2="3200" y2="0" stroke="#ddd" stroke-width="1" opacity="1"/><line transform="translate(0,520)" x2="3200" y2="0" stroke="#ddd" stroke-width="1" opacity="1"/><line transform="translate(0,480)" x2="3200" y2="0" stroke="#ddd" stroke-width="1" opacity="1"/><line transform="translate(0,440)" x2="3200" y2="0" stroke="#ddd" stroke-width="1" opacity="1"/><line transform="translate(0,400)" x2="3200" y2="0" stroke="#ddd" stroke-width="1" opacity="1"/><line transform="translate(0,360)" x2="3200" y2="0" stroke="#ddd" stroke-width="1" opacity="1"/><line transform="translate(0,320)" x2="3200" y2="0" stroke="#ddd" stroke-width="1" opacity="1"/><line transform="translate(0,280)" x2="3200" y2="0" stroke="#ddd" stroke-width="1" opacity="1"/><line transform="translate(0,240)" x2="3200" y2="0" stroke="#ddd" stroke-width="1" opacity="1"/><line transform="translate(0,200)" x2="3200" y2="0" stroke="#ddd" stroke-width="1" opacity="1"/><line transform="translate(0,160)" x2="3200" y2="0" stroke="#ddd" stroke-width="1" opacity="1"/><line transform="translate(0,120)" x2="3200" y2="0" stroke="#ddd" stroke-width="1" opacity="1"/><line transform="translate(0,80)" x2="3200" y2="0" stroke="#ddd" stroke-width="1" opacity="1"/><line transform="translate(0,40)" x2="3200" y2="0" stroke="#ddd" stroke-width="1" opacity="1"/><line transform="translate(0,0)" x2="3200" y2="0" stroke="#ddd" stroke-width="1" opacity="1"/></g></g><path class="foreground" aria-hidden="true" d="" pointer-events="none" display="none"/></g></g><g class="mark-group role-axis" role="graphics-symbol" aria-roledescription="axis" aria-label="X-axis titled 'Stress Pattern' for a discrete scale with 5 values: 020010, 020100, 200100, 201000, 201020"><g transform="translate(0.5,1800.5)"><path class="background" aria-hidden="true" d="M0,0h0v0h0Z" pointer-events="none"/><g><g class="mark-rule role-axis-tick" pointer-events="none"><line transform="translate(320,0)" x2="0" y2="5" stroke="#888" stroke-width="1" opacity="1"/><line transform="translate(960,0)" x2="0" y2="5" stroke="#888" stroke-width="1" opacity="1"/><line transform="translate(1600,0)" x2="0" y2="5" stroke="#888" stroke-width="1" opacity="1"/><line transform="translate(2240,0)" x2="0" y2="5" stroke="#888" stroke-width="1" opacity="1"/><line transform="translate(2880,0)" x2="0" y2="5" stroke="#888" stroke-width="1" opacity="1"/></g><g class="mark-text role-axis-label" pointer-events="none"><text text-anchor="middle" transform="translate(319.5,23)" font-family="sans-serif" font-size="20px" fill="#000" opacity="1">020010</text><text text-anchor="middle" transform="translate(959.5,23)" font-family="sans-serif" font-size="20px" fill="#000" opacity="1">020100</text><text text-anchor="middle" transform="translate(1599.5,23)" font-family="sans-serif" font-size="20px" fill="#000" opacity="1">200100</text><text text-anchor="middle" transform="translate(2239.5,23)" font-family="sans-serif" font-size="20px" fill="#000" opacity="1">201000</text><text text-anchor="middle" transform="translate(2879.5,23)" font-family="sans-serif" font-size="20px" fill="#000" opacity="1">201020</text></g><g class="mark-rule role-axis-domain" pointer-events="none"><line transform="translate(0,0)" x2="3200" y2="0" stroke="#888" stroke-width="1" opacity="1"/></g><g class="mark-text role-axis-title" pointer-events="none"><text text-anchor="middle" transform="translate(1600,47)" font-family="sans-serif" font-size="20px" font-weight="bold" fill="#000" opacity="1">Stress Pattern</text></g></g><path class="foreground" aria-hidden="true" d="" pointer-events="none" display="none"/></g></g><g class="mark-group role-axis" role="graphics-symbol" aria-roledescription="axis" aria-label="Y-axis titled 'Count' for a linear scale with values from 0 to 90"><g transform="translate(0.5,0.5)"><path class="background" aria-hidden="true" d="M0,0h0v0h0Z" pointer-events="none"/><g><g class="mark-rule role-axis-tick" pointer-events="none"><line transform="translate(0,1800)" x2="-5" y2="0" stroke="#888" stroke-width="1" opacity="1"/><line transform="translate(0,1760)" x2="-5" y2="0" stroke="#888" stroke-width="1" opacity="1"/><line transform="translate(0,1720)" x2="-5" y2="0" stroke="#888" stroke-width="1" opacity="1"/><line transform="translate(0,1680)" x2="-5" y2="0" stroke="#888" stroke-width="1" opacity="1"/><line transform="translate(0,1640)" x2="-5" y2="0" stroke="#888" stroke-width="1" opacity="1"/><line transform="translate(0,1600)" x2="-5" y2="0" stroke="#888" stroke-width="1" opacity="1"/><line transform="translate(0,1560)" x2="-5" y2="0" stroke="#888" stroke-width="1" opacity="1"/><line transform="translate(0,1520)" x2="-5" y2="0" stroke="#888" stroke-width="1" opacity="1"/><line transform="translate(0,1480)" x2="-5" y2="0" stroke="#888" stroke-width="1" opacity="1"/><line transform="translate(0,1440)" x2="-5" y2="0" stroke="#888" stroke-width="1" opacity="1"/><line transform="translate(0,1400)" x2="-5" y2="0" stroke="#888" stroke-width="1" opacity="1"/><line transform="translate(0,1360)" x2="-5" y2="0" stroke="#888" stroke-width="1" opacity="1"/><line transform="translate(0,1320)" x2="-5" y2="0" stroke="#888" stroke-width="1" opacity="1"/><line transform="translate(0,1280)" x2="-5" y2="0" stroke="#888" stroke-width="1" opacity="1"/><line transform="translate(0,1240)" x2="-5" y2="0" stroke="#888" stroke-width="1" opacity="1"/><line transform="translate(0,1200)" x2="-5" y2="0" stroke="#888" stroke-width="1" opacity="1"/><line transform="translate(0,1160)" x2="-5" y2="0" stroke="#888" stroke-width="1" opacity="1"/><line transform="translate(0,1120)" x2="-5" y2="0" stroke="#888" stroke-width="1" opacity="1"/><line transform="translate(0,1080)" x2="-5" y2="0" stroke="#888" stroke-width="1" opacity="1"/><line transform="translate(0,1040)" x2="-5" y2="0" stroke="#888" stroke-width="1" opacity="1"/><line transform="translate(0,1000)" x2="-5" y2="0" stroke="#888" stroke-width="1" opacity="1"/><line transform="translate(0,960)" x2="-5" y2="0" stroke="#888" stroke-width="1" opacity="1"/><line transform="translate(0,920)" x2="-5" y2="0" stroke="#888" stroke-width="1" opacity="1"/><line transform="translate(0,880)" x2="-5" y2="0" stroke="#888" stroke-width="1" opacity="1"/><line transform="translate(0,840)" x2="-5" y2="0" stroke="#888" stroke-width="1" opacity="1"/><line transform="translate(0,800)" x2="-5" y2="0" stroke="#888" stroke-width="1" opacity="1"/><line transform="translate(0,760)" x2="-5" y2="0" stroke="#888" stroke-width="1" opacity="1"/><line transform="translate(0,720)" x2="-5" y2="0" stroke="#888" stroke-width="1" opacity="1"/><line transform="translate(0,680)" x2="-5" y2="0" stroke="#888" stroke-width="1" opacity="1"/><line transform="translate(0,640)" x2="-5" y2="0" stroke="#888" stroke-width="1" opacity="1"/><line transform="translate(0,600)" x2="-5" y2="0" stroke="#888" stroke-width="1" opacity="1"/><line transform="translate(0,560)" x2="-5" y2="0" stroke="#888" stroke-width="1" opacity="1"/><line transform="translate(0,520)" x2="-5" y2="0" stroke="#888" stroke-width="1" opacity="1"/><line transform="translate(0,480)" x2="-5" y2="0" stroke="#888" stroke-width="1" opacity="1"/><line transform="translate(0,440)" x2="-5" y2="0" stroke="#888" stroke-width="1" opacity="1"/><line transform="translate(0,400)" x2="-5" y2="0" stroke="#888" stroke-width="1" opacity="1"/><line transform="translate(0,360)" x2="-5" y2="0" stroke="#888" stroke-width="1" opacity="1"/><line transform="translate(0,320)" x2="-5" y2="0" stroke="#888" stroke-width="1" opacity="1"/><line transform="translate(0,280)" x2="-5" y2="0" stroke="#888" stroke-width="1" opacity="1"/><line transform="translate(0,240)" x2="-5" y2="0" stroke="#888" stroke-width="1" opacity="1"/><line transform="translate(0,200)" x2="-5" y2="0" stroke="#888" stroke-width="1" opacity="1"/><line transform="translate(0,160)" x2="-5" y2="0" stroke="#888" stroke-width="1" opacity="1"/><line transform="translate(0,120)" x2="-5" y2="0" stroke="#888" stroke-width="1" opacity="1"/><line transform="translate(0,80)" x2="-5" y2="0" stroke="#888" stroke-width="1" opacity="1"/><line transform="translate(0,40)" x2="-5" y2="0" stroke="#888" stroke-width="1" opacity="1"/><line transform="translate(0,0)" x2="-5" y2="0" stroke="#888" stroke-width="1" opacity="1"/></g><g class="mark-text role-axis-label" pointer-events="none"><text text-anchor="end" transform="translate(-7,1806)" font-family="sans-serif" font-size="20px" fill="#000" opacity="1">0</text><text text-anchor="end" transform="translate(-7,1766)" font-family="sans-serif" font-size="20px" fill="#000" opacity="1">2</text><text text-anchor="end" transform="translate(-7,1726)" font-family="sans-serif" font-size="20px" fill="#000" opacity="1">4</text><text text-anchor="end" transform="translate(-7,1686)" font-family="sans-serif" font-size="20px" fill="#000" opacity="1">6</text><text text-anchor="end" transform="translate(-7,1646)" font-family="sans-serif" font-size="20px" fill="#000" opacity="1">8</text><text text-anchor="end" transform="translate(-7,1606)" font-family="sans-serif" font-size="20px" fill="#000" opacity="1">10</text><text text-anchor="end" transform="translate(-7,1566)" font-family="sans-serif" font-size="20px" fill="#000" opacity="1">12</text><text text-anchor="end" transform="translate(-7,1526)" font-family="sans-serif" font-size="20px" fill="#000" opacity="1">14</text><text text-anchor="end" transform="translate(-7,1486)" font-family="sans-serif" font-size="20px" fill="#000" opacity="1">16</text><text text-anchor="end" transform="translate(-7,1446)" font-family="sans-serif" font-size="20px" fill="#000" opacity="1">18</text><text text-anchor="end" transform="translate(-7,1406)" font-family="sans-serif" font-size="20px" fill="#000" opacity="1">20</text><text text-anchor="end" transform="translate(-7,1366)" font-family="sans-serif" font-size="20px" fill="#000" opacity="1">22</text><text text-anchor="end" transform="translate(-7,1326)" font-family="sans-serif" font-size="20px" fill="#000" opacity="1">24</text><text text-anchor="end" transform="translate(-7,1286)" font-family="sans-serif" font-size="20px" fill="#000" opacity="1">26</text><text text-anchor="end" transform="translate(-7,1246)" font-family="sans-serif" font-size="20px" fill="#000" opacity="1">28</text><text text-anchor="end" transform="translate(-7,1206.0000000000002)" font-family="sans-serif" font-size="20px" fill="#000" opacity="1">30</text><text text-anchor="end" transform="translate(-7,1165.9999999999998)" font-family="sans-serif" font-size="20px" fill="#000" opacity="1">32</text><text text-anchor="end" transform="translate(-7,1126)" font-family="sans-serif" font-size="20px" fill="#000" opacity="1">34</text><text text-anchor="end" transform="translate(-7,1086)" font-family="sans-serif" font-size="20px" fill="#000" opacity="1">36</text><text text-anchor="end" transform="translate(-7,1046)" font-family="sans-serif" font-size="20px" fill="#000" opacity="1">38</text><text text-anchor="end" transform="translate(-7,1006)" font-family="sans-serif" font-size="20px" fill="#000" opacity="1">40</text><text text-anchor="end" transform="translate(-7,966)" font-family="sans-serif" font-size="20px" fill="#000" opacity="1">42</text><text text-anchor="end" transform="translate(-7,925.9999999999999)" font-family="sans-serif" font-size="20px" fill="#000" opacity="1">44</text><text text-anchor="end" transform="translate(-7,886.0000000000001)" font-family="sans-serif" font-size="20px" fill="#000" opacity="1">46</text><text text-anchor="end" transform="translate(-7,846)" font-family="sans-serif" font-size="20px" fill="#000" opacity="1">48</text><text text-anchor="end" transform="translate(-7,806)" font-family="sans-serif" font-size="20px" fill="#000" opacity="1">50</text><text text-anchor="end" transform="translate(-7,766.0000000000001)" font-family="sans-serif" font-size="20px" fill="#000" opacity="1">52</text><text text-anchor="end" transform="translate(-7,726)" font-family="sans-serif" font-size="20px" fill="#000" opacity="1">54</text><text text-anchor="end" transform="translate(-7,686)" font-family="sans-serif" font-size="20px" fill="#000" opacity="1">56</text><text text-anchor="end" transform="translate(-7,645.9999999999999)" font-family="sans-serif" font-size="20px" fill="#000" opacity="1">58</text><text text-anchor="end" transform="translate(-7,606.0000000000001)" font-family="sans-serif" font-size="20px" fill="#000" opacity="1">60</text><text text-anchor="end" transform="translate(-7,566)" font-family="sans-serif" font-size="20px" fill="#000" opacity="1">62</text><text text-anchor="end" transform="translate(-7,526)" font-family="sans-serif" font-size="20px" fill="#000" opacity="1">64</text><text text-anchor="end" transform="translate(-7,486.0000000000001)" font-family="sans-serif" font-size="20px" fill="#000" opacity="1">66</text><text text-anchor="end" transform="translate(-7,446.00000000000006)" font-family="sans-serif" font-size="20px" fill="#000" opacity="1">68</text><text text-anchor="end" transform="translate(-7,406)" font-family="sans-serif" font-size="20px" fill="#000" opacity="1">70</text><text text-anchor="end" transform="translate(-7,365.99999999999994)" font-family="sans-serif" font-size="20px" fill="#000" opacity="1">72</text><text text-anchor="end" transform="translate(-7,326.00000000000006)" font-family="sans-serif" font-size="20px" fill="#000" opacity="1">74</text><text text-anchor="end" transform="translate(-7,286)" font-family="sans-serif" font-size="20px" fill="#000" opacity="1">76</text><text text-anchor="end" transform="translate(-7,245.99999999999994)" font-family="sans-serif" font-size="20px" fill="#000" opacity="1">78</text><text text-anchor="end" transform="translate(-7,206.00000000000009)" font-family="sans-serif" font-size="20px" fill="#000" opacity="1">80</text><text text-anchor="end" transform="translate(-7,166.00000000000003)" font-family="sans-serif" font-size="20px" fill="#000" opacity="1">82</text><text text-anchor="end" transform="translate(-7,125.99999999999997)" font-family="sans-serif" font-size="20px" fill="#000" opacity="1">84</text><text text-anchor="end" transform="translate(-7,85.99999999999991)" font-family="sans-serif" font-size="20px" fill="#000" opacity="1">86</text><text text-anchor="end" transform="translate(-7,46.00000000000006)" font-family="sans-serif" font-size="20px" fill="#000" opacity="1">88</text><text text-anchor="end" transform="translate(-7,6)" font-family="sans-serif" font-size="20px" fill="#000" opacity="1">90</text></g><g class="mark-rule role-axis-domain" pointer-events="none"><line transform="translate(0,1800)" x2="0" y2="-1800" stroke="#888" stroke-width="1" opacity="1"/></g><g class="mark-text role-axis-title" pointer-events="none"><text text-anchor="middle" transform="translate(-33.24609375,900) rotate(-90) translate(0,-4)" font-family="sans-serif" font-size="20px" font-weight="bold" fill="#000" opacity="1">Count</text></g></g><path class="foreground" aria-hidden="true" d="" pointer-events="none" display="none"/></g></g><g class="mark-rect role-mark layer_0_marks" role="graphics-object" aria-roledescription="rect mark container"><path aria-label="Stress Pattern: 200100; Count: 87" role="graphics-symbol" aria-roledescription="bar" d="M1575,59.999999999999986h50v1740h-50Z" fill="#4c78a8"/><path aria-label="Stress Pattern: 020100; Count: 74" role="graphics-symbol" aria-roledescription="bar" d="M935,320.00000000000006h50v1480h-50Z" fill="#4c78a8"/><path aria-label="Stress Pattern: 201000; Count: 49" role="graphics-symbol" aria-roledescription="bar" d="M2215,820.0000000000001h50v979.9999999999999h-50Z" fill="#4c78a8"/><path aria-label="Stress Pattern: 201020; Count: 37" role="graphics-symbol" aria-roledescription="bar" d="M2855,1060h50v740h-50Z" fill="#4c78a8"/><path aria-label="Stress Pattern: 020010; Count: 28" role="graphics-symbol" aria-roledescription="bar" d="M295,1240h50v560h-50Z" fill="#4c78a8"/></g><g class="mark-text role-mark layer_1_marks" role="graphics-object" aria-roledescription="text mark container"><text aria-label="Stress Pattern: 200100; Count: 87; count: 87" role="graphics-symbol" aria-roledescription="text mark" text-anchor="middle" transform="translate(1600,53.999999999999986)" font-family="sans-serif" font-size="20px" fill="black">87</text><text aria-label="Stress Pattern: 020100; Count: 74; count: 74" role="graphics-symbol" aria-roledescription="text mark" text-anchor="middle" transform="translate(960,314.00000000000006)" font-family="sans-serif" font-size="20px" fill="black">74</text><text aria-label="Stress Pattern: 201000; Count: 49; count: 49" role="graphics-symbol" aria-roledescription="text mark" text-anchor="middle" transform="translate(2240,814.0000000000001)" font-family="sans-serif" font-size="20px" fill="black">49</text><text aria-label="Stress Pattern: 201020; Count: 37; count: 37" role="graphics-symbol" aria-roledescription="text mark" text-anchor="middle" transform="translate(2880,1054)" font-family="sans-serif" font-size="20px" fill="black">37</text><text aria-label="Stress Pattern: 020010; Count: 28; count: 28" role="graphics-symbol" aria-roledescription="text mark" text-anchor="middle" transform="translate(320,1234)" font-family="sans-serif" font-size="20px" fill="black">28</text></g><g class="mark-group role-title"><g transform="translate(1600,-39)"><path class="background" aria-hidden="true" d="M0,0h0v0h0Z" pointer-events="none"/><g><g class="mark-text role-title-text" role="graphics-symbol" aria-roledescription="title" aria-label="Title text 'Stress Pattern in 6-Syllable English Words'" pointer-events="none"><text text-anchor="middle" transform="translate(0,20)" font-family="sans-serif" font-size="25px" font-weight="bold" fill="#000" opacity="1">Stress Pattern in 6-Syllable English Words</text></g></g><path class="foreground" aria-hidden="true" d="" pointer-events="none" display="none"/></g></g></g><path class="foreground" aria-hidden="true" d="" display="none"/></g></g></g></svg>